<svg width="475" height="217" viewBox="0 0 475 217" fill="none" xmlns="http://www.w3.org/2000/svg">
<g clip-path="url(#clip0)">
<rect width="475" height="217" fill="#3EC4B6" fill-opacity="0.85"/>
<circle cx="2" cy="166" r="74" fill="#00A594" fill-opacity="0.2"/>
<path d="M29.733 6.83587C22.1485 0.409308 21.2098 -10.9489 27.6363 -18.5335L52.8302 -48.267C59.2568 -55.8515 70.615 -56.7902 78.1996 -50.3637L116.588 -17.8359C124.173 -11.4093 125.112 -0.0510712 118.685 7.53347L93.4912 37.267C87.0647 44.8515 75.7064 45.7902 68.1219 39.3637L29.733 6.83587Z" fill="#00A594" fill-opacity="0.2"/>
<path d="M362.487 128.036C366.237 123.498 373.574 125.334 374.744 131.104L402.092 265.971C403.115 271.016 398.526 275.402 393.532 274.152L278.527 245.368C273.534 244.118 271.552 238.087 274.831 234.118L362.487 128.036Z" fill="#00A594" fill-opacity="0.2"/>
<ellipse cx="356" cy="51.5" rx="23" ry="22.5" fill="#00A594" fill-opacity="0.2"/>
<g clip-path="url(#clip1)">
<path d="M70.7317 87.5998L70.7321 87.599C70.7267 87.602 70.7194 87.6063 70.7317 87.5998Z" fill="white" fill-opacity="0.6"/>
<path d="M73.1298 88.9134L73.1294 88.9142C73.1302 88.919 73.1301 88.9158 73.1298 88.9134Z" fill="white" fill-opacity="0.6"/>
<path d="M73.2216 93.2673L73.1294 88.9142C73.1293 88.9099 73.1296 88.9114 73.1298 88.9134L74.6961 86.0659C74.9341 86.1048 75.1818 85.9933 75.3045 85.7702C75.4602 85.4872 75.3566 85.1302 75.0735 84.9745L73.0199 83.8449C72.7369 83.6892 72.3799 83.7928 72.2242 84.0759C72.1014 84.299 72.1399 84.5679 72.3002 84.7481L70.7321 87.599C70.7363 87.5967 70.7395 87.595 70.7317 87.5998L67.0751 89.8108C66.8602 89.9226 66.6847 90.0943 66.5673 90.3076C66.2411 90.9007 66.4582 91.6486 67.0513 91.9748L71.4051 94.3696C71.4146 94.3748 71.4244 94.3792 71.4342 94.3827C71.6154 94.4763 71.8185 94.5234 72.0238 94.5189C72.351 94.5117 72.6557 94.3775 72.882 94.141C73.1082 93.9046 73.2288 93.5942 73.2216 93.2673ZM72.5664 84.2642C72.6183 84.1698 72.7373 84.1352 72.8317 84.1871L74.8853 85.3167C74.9796 85.3686 75.0142 85.4876 74.9623 85.582C74.9104 85.6763 74.7914 85.7109 74.697 85.659L72.6434 84.5294C72.5491 84.4775 72.5145 84.3585 72.5664 84.2642ZM72.0249 87.4649L71.4313 87.1384L71.6995 86.6507L72.1679 86.9083C72.2624 86.9603 72.3812 86.9258 72.4332 86.8313C72.4851 86.7368 72.4507 86.618 72.3562 86.566L71.8878 86.3084L72.1561 85.8207L72.7497 86.1472C72.8442 86.1992 72.963 86.1647 73.015 86.0702C73.067 85.9757 73.0325 85.8569 72.938 85.8049L72.3443 85.4784L72.6263 84.9658L74.3376 85.9071L72.7619 88.7718C72.7454 88.8018 72.737 88.8357 72.7378 88.87L72.7484 89.3841C72.4115 89.1575 72.0514 89.0271 71.7002 88.9001C71.273 88.7456 70.8332 88.5863 70.4131 88.2493L70.9787 87.9069C71.008 87.8891 71.0322 87.864 71.0487 87.8339L71.243 87.4806L71.8367 87.8072C71.9312 87.8592 72.0499 87.8247 72.1019 87.7302C72.1539 87.6357 72.1194 87.5169 72.0249 87.4649ZM72.5997 93.871C72.4456 94.032 72.238 94.1234 72.0152 94.1283C71.8682 94.1316 71.7229 94.0961 71.5951 94.0258C71.5949 94.0257 71.5947 94.0256 71.5946 94.0255C71.5863 94.0216 71.577 94.0167 71.5679 94.0133L67.2396 91.6325C66.8352 91.4101 66.6872 90.9002 66.9096 90.4959C66.9904 90.3489 67.1115 90.2311 67.2597 90.1551C67.2638 90.153 67.2678 90.1507 67.2718 90.1484L69.3375 88.898C69.3505 88.8901 69.3645 88.8822 69.3816 88.8733C69.385 88.8714 69.3884 88.8695 69.3917 88.8675L70.0601 88.4629C70.2569 88.6352 70.4576 88.7696 70.6573 88.8795C70.9696 89.0512 71.2794 89.1633 71.5673 89.2674C71.9976 89.4231 72.4052 89.5707 72.7587 89.885L72.7775 90.7914C72.7777 90.801 72.7786 90.8105 72.7801 90.8197L72.831 93.2756C72.836 93.4985 72.7538 93.7099 72.5997 93.871Z" fill="white" fill-opacity="0.6"/>
<path d="M73.4522 86.0878L73.4466 86.0847C73.3521 86.0327 73.2334 86.0672 73.1814 86.1617C73.1294 86.2563 73.1639 86.375 73.2584 86.427L73.2639 86.43C73.3584 86.482 73.4772 86.4475 73.5292 86.353C73.5812 86.2585 73.5467 86.1398 73.4522 86.0878Z" fill="white" fill-opacity="0.6"/>
<path d="M72.5391 87.7478L72.5336 87.7447C72.439 87.6927 72.3203 87.7272 72.2683 87.8217C72.2163 87.9162 72.2508 88.035 72.3453 88.087L72.3508 88.09C72.4453 88.142 72.5641 88.1075 72.6161 88.013C72.6681 87.9185 72.6336 87.7997 72.5391 87.7478Z" fill="white" fill-opacity="0.6"/>
</g>
<g clip-path="url(#clip2)">
<path d="M394.348 183.395L394.348 183.394C394.345 183.399 394.342 183.407 394.348 183.395Z" fill="white" fill-opacity="0.6"/>
<path d="M397.051 182.982L397.051 182.982C397.055 182.986 397.053 182.983 397.051 182.982Z" fill="white" fill-opacity="0.6"/>
<path d="M399.768 186.385L397.051 182.982C397.048 182.979 397.05 182.98 397.051 182.982L396.566 179.768C396.779 179.655 396.908 179.415 396.87 179.164C396.821 178.844 396.522 178.624 396.203 178.672L393.885 179.022C393.566 179.07 393.345 179.369 393.393 179.689C393.431 179.94 393.625 180.131 393.862 180.176L394.348 183.394C394.35 183.389 394.351 183.386 394.348 183.395L392.786 187.372C392.683 187.591 392.648 187.834 392.685 188.075C392.786 188.744 393.412 189.207 394.082 189.106L398.995 188.364C399.006 188.362 399.016 188.359 399.026 188.356C399.227 188.321 399.417 188.235 399.577 188.106C399.833 187.902 399.993 187.61 400.029 187.285C400.065 186.96 399.973 186.64 399.768 186.385ZM393.78 179.63C393.764 179.524 393.837 179.424 393.944 179.408L396.261 179.058C396.368 179.042 396.467 179.116 396.483 179.222C396.499 179.329 396.426 179.428 396.319 179.444L394.002 179.794C393.895 179.81 393.796 179.737 393.78 179.63ZM395.294 182.502L394.624 182.603L394.54 182.053L395.069 181.973C395.176 181.957 395.249 181.857 395.233 181.751C395.217 181.644 395.117 181.571 395.011 181.587L394.482 181.666L394.399 181.116L395.069 181.015C395.176 180.999 395.249 180.899 395.233 180.793C395.217 180.686 395.117 180.613 395.011 180.629L394.341 180.73L394.253 180.151L396.185 179.86L396.673 183.093C396.678 183.126 396.692 183.158 396.713 183.185L397.034 183.587C396.629 183.612 396.263 183.727 395.907 183.839C395.474 183.976 395.028 184.117 394.489 184.104L394.731 183.489C394.743 183.457 394.747 183.422 394.742 183.388L394.682 182.989L395.352 182.888C395.458 182.872 395.532 182.773 395.516 182.666C395.5 182.559 395.4 182.486 395.294 182.502ZM399.641 187.242C399.616 187.463 399.507 187.662 399.333 187.801C399.218 187.893 399.081 187.953 398.937 187.975C398.937 187.975 398.937 187.975 398.936 187.975C398.927 187.977 398.917 187.979 398.908 187.982L394.023 188.719C393.567 188.788 393.14 188.473 393.071 188.017C393.046 187.851 393.07 187.684 393.142 187.533C393.144 187.529 393.146 187.525 393.147 187.521L394.029 185.273C394.035 185.259 394.041 185.244 394.049 185.226C394.051 185.223 394.052 185.219 394.054 185.216L394.339 184.488C394.6 184.505 394.841 184.49 395.066 184.456C395.419 184.403 395.733 184.304 396.025 184.212C396.461 184.074 396.875 183.944 397.346 183.979L397.912 184.687C397.918 184.695 397.924 184.702 397.931 184.708L399.463 186.628C399.602 186.802 399.666 187.02 399.641 187.242Z" fill="white" fill-opacity="0.6"/>
<path d="M395.591 180.541L395.585 180.542C395.478 180.558 395.405 180.658 395.421 180.764C395.437 180.871 395.536 180.944 395.643 180.928L395.649 180.927C395.756 180.911 395.829 180.812 395.813 180.705C395.797 180.598 395.698 180.525 395.591 180.541Z" fill="white" fill-opacity="0.6"/>
<path d="M395.874 182.414L395.868 182.415C395.761 182.431 395.687 182.531 395.704 182.638C395.72 182.744 395.819 182.818 395.926 182.802L395.932 182.801C396.039 182.784 396.112 182.685 396.096 182.578C396.08 182.472 395.98 182.398 395.874 182.414Z" fill="white" fill-opacity="0.6"/>
</g>
<g clip-path="url(#clip3)">
<path d="M317.885 18.5998L317.886 18.599C317.88 18.602 317.873 18.6063 317.885 18.5998Z" fill="white" fill-opacity="0.6"/>
<path d="M320.283 19.9134L320.283 19.9142C320.284 19.919 320.284 19.9158 320.283 19.9134Z" fill="white" fill-opacity="0.6"/>
<path d="M320.375 24.2673L320.283 19.9142C320.283 19.9099 320.283 19.9114 320.283 19.9134L321.85 17.0659C322.088 17.1048 322.335 16.9933 322.458 16.7702C322.614 16.4872 322.51 16.1302 322.227 15.9745L320.174 14.8449C319.89 14.6892 319.533 14.7928 319.378 15.0759C319.255 15.299 319.294 15.5679 319.454 15.7481L317.886 18.599C317.89 18.5967 317.893 18.595 317.885 18.5998L314.229 20.8108C314.014 20.9226 313.838 21.0943 313.721 21.3076C313.395 21.9007 313.612 22.6486 314.205 22.9748L318.559 25.3696C318.568 25.3748 318.578 25.3792 318.588 25.3827C318.769 25.4763 318.972 25.5234 319.177 25.5189C319.505 25.5117 319.809 25.3775 320.036 25.141C320.262 24.9046 320.382 24.5942 320.375 24.2673ZM319.72 15.2642C319.772 15.1698 319.891 15.1352 319.985 15.1871L322.039 16.3167C322.133 16.3686 322.168 16.4876 322.116 16.582C322.064 16.6763 321.945 16.7109 321.851 16.659L319.797 15.5294C319.703 15.4775 319.668 15.3585 319.72 15.2642ZM319.179 18.4649L318.585 18.1384L318.853 17.6507L319.321 17.9083C319.416 17.9603 319.535 17.9258 319.587 17.8313C319.639 17.7368 319.604 17.618 319.51 17.566L319.041 17.3084L319.31 16.8207L319.903 17.1472C319.998 17.1992 320.117 17.1647 320.169 17.0702C320.221 16.9757 320.186 16.8569 320.092 16.8049L319.498 16.4784L319.78 15.9658L321.491 16.9071L319.915 19.7718C319.899 19.8018 319.891 19.8357 319.891 19.87L319.902 20.3841C319.565 20.1575 319.205 20.0271 318.854 19.9001C318.427 19.7456 317.987 19.5863 317.567 19.2493L318.132 18.9069C318.162 18.8891 318.186 18.864 318.202 18.8339L318.397 18.4806L318.99 18.8072C319.085 18.8592 319.204 18.8247 319.256 18.7302C319.307 18.6357 319.273 18.5169 319.179 18.4649ZM319.753 24.871C319.599 25.032 319.392 25.1234 319.169 25.1283C319.022 25.1316 318.877 25.0961 318.749 25.0258C318.749 25.0257 318.748 25.0256 318.748 25.0255C318.74 25.0216 318.731 25.0167 318.722 25.0133L314.393 22.6325C313.989 22.4101 313.841 21.9002 314.063 21.4959C314.144 21.3489 314.265 21.2311 314.413 21.1551C314.417 21.153 314.421 21.1507 314.425 21.1484L316.491 19.898C316.504 19.8901 316.518 19.8822 316.535 19.8733C316.539 19.8714 316.542 19.8695 316.545 19.8675L317.214 19.4629C317.41 19.6352 317.611 19.7696 317.811 19.8795C318.123 20.0512 318.433 20.1633 318.721 20.2674C319.151 20.4231 319.559 20.5707 319.912 20.885L319.931 21.7914C319.931 21.801 319.932 21.8105 319.934 21.8197L319.985 24.2756C319.99 24.4985 319.907 24.7099 319.753 24.871Z" fill="white" fill-opacity="0.6"/>
<path d="M320.606 17.0878L320.6 17.0847C320.506 17.0327 320.387 17.0672 320.335 17.1617C320.283 17.2562 320.317 17.375 320.412 17.427L320.418 17.43C320.512 17.482 320.631 17.4475 320.683 17.353C320.735 17.2585 320.7 17.1398 320.606 17.0878Z" fill="white" fill-opacity="0.6"/>
<path d="M319.693 18.7477L319.687 18.7447C319.593 18.6927 319.474 18.7272 319.422 18.8217C319.37 18.9162 319.404 19.035 319.499 19.087L319.504 19.09C319.599 19.142 319.718 19.1075 319.77 19.013C319.822 18.9185 319.787 18.7997 319.693 18.7477Z" fill="white" fill-opacity="0.6"/>
</g>
<g clip-path="url(#clip4)">
<path d="M209.555 125.255L209.555 125.253C209.552 125.262 209.548 125.274 209.555 125.255Z" fill="white" fill-opacity="0.6"/>
<path d="M213.569 124.408L213.569 124.409C213.573 124.414 213.571 124.411 213.569 124.408Z" fill="white" fill-opacity="0.6"/>
<path d="M217.925 129.276L213.569 124.41C213.565 124.405 213.566 124.406 213.569 124.408L212.571 119.637C212.88 119.448 213.053 119.08 212.975 118.706C212.876 118.231 212.409 117.926 211.935 118.025L208.494 118.745C208.019 118.844 207.714 119.311 207.813 119.785C207.891 120.159 208.198 120.427 208.556 120.476L209.555 125.253C209.558 125.246 209.56 125.241 209.555 125.255L207.552 131.343C207.416 131.68 207.384 132.047 207.459 132.404C207.666 133.398 208.644 134.038 209.638 133.83L216.934 132.305C216.949 132.301 216.965 132.297 216.979 132.291C217.277 132.221 217.554 132.076 217.784 131.87C218.149 131.543 218.365 131.092 218.392 130.602C218.418 130.112 218.253 129.641 217.925 129.276ZM208.387 119.665C208.354 119.507 208.456 119.351 208.614 119.318L212.055 118.599C212.213 118.566 212.369 118.667 212.402 118.826C212.435 118.984 212.333 119.139 212.175 119.172L208.734 119.892C208.575 119.925 208.42 119.823 208.387 119.665ZM210.896 123.838L209.901 124.046L209.731 123.229L210.515 123.065C210.674 123.032 210.775 122.876 210.742 122.718C210.709 122.56 210.554 122.458 210.395 122.491L209.611 122.655L209.44 121.838L210.435 121.63C210.593 121.597 210.694 121.442 210.661 121.283C210.628 121.125 210.473 121.023 210.315 121.056L209.32 121.264L209.14 120.405L212.008 119.806L213.012 124.606C213.022 124.657 213.046 124.703 213.08 124.742L213.594 125.317C212.989 125.388 212.452 125.591 211.928 125.789C211.291 126.03 210.635 126.279 209.827 126.305L210.137 125.363C210.153 125.314 210.156 125.262 210.145 125.212L210.021 124.62L211.016 124.412C211.174 124.378 211.276 124.223 211.243 124.065C211.21 123.906 211.055 123.805 210.896 123.838ZM217.807 130.57C217.788 130.904 217.641 131.211 217.392 131.434C217.228 131.581 217.028 131.683 216.814 131.728C216.814 131.728 216.813 131.728 216.813 131.728C216.8 131.731 216.785 131.735 216.771 131.74L209.518 133.256C208.84 133.398 208.174 132.962 208.032 132.284C207.981 132.038 208.003 131.786 208.098 131.554C208.101 131.548 208.103 131.542 208.105 131.535L209.236 128.094C209.243 128.072 209.251 128.05 209.262 128.023C209.264 128.017 209.266 128.012 209.268 128.006L209.634 126.893C210.026 126.897 210.386 126.854 210.721 126.784C211.244 126.675 211.706 126.5 212.135 126.337C212.777 126.094 213.386 125.864 214.095 125.877L215.002 126.89C215.011 126.901 215.021 126.911 215.032 126.92L217.489 129.666C217.712 129.915 217.825 130.236 217.807 130.57Z" fill="white" fill-opacity="0.6"/>
<path d="M211.176 120.876L211.167 120.878C211.009 120.911 210.907 121.067 210.94 121.225C210.973 121.383 211.128 121.485 211.287 121.452L211.296 121.45C211.455 121.417 211.556 121.261 211.523 121.103C211.49 120.945 211.335 120.843 211.176 120.876Z" fill="white" fill-opacity="0.6"/>
<path d="M211.758 123.658L211.748 123.66C211.59 123.693 211.489 123.848 211.522 124.007C211.555 124.165 211.71 124.266 211.868 124.233L211.878 124.231C212.036 124.198 212.138 124.043 212.105 123.885C212.071 123.726 211.916 123.625 211.758 123.658Z" fill="white" fill-opacity="0.6"/>
</g>
<path d="M107.94 192.766C107.779 192.766 107.648 192.897 107.648 193.059C107.648 195.267 105.851 197.063 103.643 197.063C101.435 197.063 99.6381 195.267 99.6381 193.059V192.444L101.265 189.452C102.433 188.636 102.988 187.166 102.812 185.371C103.225 185.235 103.525 184.845 103.525 184.387C103.525 183.815 103.06 183.351 102.489 183.351C101.918 183.351 101.453 183.815 101.453 184.387C101.453 184.866 101.781 185.271 102.225 185.388C102.396 187.025 101.9 188.344 100.848 189.027C99.9279 189.624 98.7256 189.631 97.7853 189.046C96.697 188.368 96.1638 187.042 96.3045 185.387C96.7458 185.268 97.0717 184.865 97.0717 184.387C97.0717 183.815 96.607 183.351 96.0359 183.351C95.4647 183.351 95 183.815 95 184.387C95 184.847 95.3018 185.238 95.7178 185.372C95.5683 187.238 96.2003 188.749 97.4749 189.543L99.0521 192.444V193.059C99.0521 194.28 99.5309 195.431 100.4 196.301C101.27 197.17 102.421 197.649 103.643 197.649C104.864 197.649 106.016 197.17 106.885 196.301C107.755 195.431 108.233 194.28 108.233 193.059C108.233 192.897 108.102 192.766 107.94 192.766ZM102.039 184.387C102.039 184.139 102.241 183.937 102.489 183.937C102.737 183.937 102.939 184.139 102.939 184.387C102.939 184.635 102.737 184.836 102.489 184.836C102.241 184.836 102.039 184.635 102.039 184.387ZM95.5859 184.387C95.5859 184.139 95.7877 183.937 96.0358 183.937C96.2838 183.937 96.4856 184.139 96.4856 184.387C96.4856 184.635 96.2838 184.836 96.0358 184.836C95.7877 184.836 95.5859 184.635 95.5859 184.387ZM98.3536 189.932C98.6648 190.021 98.9857 190.065 99.3062 190.065C99.6601 190.065 100.013 190.011 100.353 189.903L99.3451 191.756L98.3536 189.932Z" fill="white" fill-opacity="0.6"/>
<path d="M107.94 191.961C107.779 191.961 107.648 192.092 107.648 192.254V192.258C107.648 192.42 107.779 192.551 107.94 192.551C108.102 192.551 108.233 192.42 108.233 192.258V192.254C108.233 192.092 108.102 191.961 107.94 191.961Z" fill="white" fill-opacity="0.6"/>
<path d="M107.941 186.742C106.805 186.742 105.881 187.669 105.881 188.808C105.881 189.848 106.65 190.71 107.648 190.854V191.443C107.648 191.605 107.779 191.736 107.94 191.736C108.102 191.736 108.233 191.605 108.233 191.443V190.854C109.231 190.711 110 189.848 110 188.808C110 187.669 109.076 186.742 107.941 186.742ZM107.941 189.17C107.743 189.17 107.582 189.008 107.582 188.808C107.582 188.609 107.743 188.447 107.941 188.447C108.138 188.447 108.299 188.609 108.299 188.808C108.299 189.008 108.138 189.17 107.941 189.17ZM108.233 190.26V189.709C108.611 189.585 108.885 189.228 108.885 188.808C108.885 188.286 108.461 187.861 107.941 187.861C107.42 187.861 106.996 188.286 106.996 188.808C106.996 189.228 107.27 189.585 107.648 189.709V190.26C106.975 190.123 106.467 189.524 106.467 188.808C106.467 187.992 107.128 187.328 107.941 187.328C108.753 187.328 109.414 187.992 109.414 188.808C109.414 189.524 108.906 190.123 108.233 190.26Z" fill="white" fill-opacity="0.6"/>
<path d="M103.643 193.04C102.781 193.04 102.081 193.743 102.081 194.608C102.081 195.472 102.781 196.175 103.643 196.175C104.504 196.175 105.205 195.472 105.205 194.608C105.205 193.743 104.504 193.04 103.643 193.04ZM103.643 195.589C103.104 195.589 102.667 195.149 102.667 194.608C102.667 194.067 103.104 193.626 103.643 193.626C104.181 193.626 104.619 194.066 104.619 194.608C104.619 195.149 104.181 195.589 103.643 195.589Z" fill="white" fill-opacity="0.6"/>
<path d="M105.516 191.424C105.003 191.424 104.585 191.866 104.585 192.409C104.585 192.952 105.003 193.394 105.516 193.394C106.03 193.394 106.448 192.952 106.448 192.409C106.448 191.866 106.03 191.424 105.516 191.424ZM105.516 192.808C105.326 192.808 105.171 192.629 105.171 192.409C105.171 192.189 105.326 192.01 105.516 192.01C105.707 192.01 105.862 192.189 105.862 192.409C105.862 192.629 105.707 192.808 105.516 192.808Z" fill="white" fill-opacity="0.6"/>
<path d="M103.663 190.559C103.15 190.559 102.732 191.001 102.732 191.544C102.732 192.087 103.15 192.529 103.663 192.529C104.177 192.529 104.595 192.087 104.595 191.544C104.595 191.001 104.177 190.559 103.663 190.559ZM103.663 191.943C103.473 191.943 103.318 191.764 103.318 191.544C103.318 191.324 103.473 191.145 103.663 191.145C103.854 191.145 104.009 191.324 104.009 191.544C104.009 191.764 103.854 191.943 103.663 191.943Z" fill="white" fill-opacity="0.6"/>
<path d="M101.769 191.424C101.256 191.424 100.838 191.866 100.838 192.409C100.838 192.952 101.256 193.394 101.769 193.394C102.283 193.394 102.7 192.952 102.7 192.409C102.7 191.866 102.283 191.424 101.769 191.424ZM101.769 192.808C101.579 192.808 101.424 192.629 101.424 192.409C101.424 192.189 101.579 192.01 101.769 192.01C101.96 192.01 102.115 192.189 102.115 192.409C102.115 192.629 101.96 192.808 101.769 192.808Z" fill="white" fill-opacity="0.6"/>
<g clip-path="url(#clip5)">
<path d="M371.997 104.604C371.854 104.679 371.799 104.856 371.874 104.999C372.9 106.954 372.145 109.38 370.19 110.407C368.235 111.433 365.809 110.678 364.782 108.723L364.497 108.178L364.546 104.773C365.201 103.508 365.009 101.948 364.018 100.441C364.321 100.128 364.405 99.6438 364.192 99.238C363.927 98.7323 363.299 98.5369 362.793 98.8024C362.288 99.0679 362.092 99.6953 362.358 100.201C362.581 100.626 363.06 100.832 363.507 100.729C364.419 102.099 364.594 103.497 363.979 104.59C363.442 105.547 362.381 106.112 361.277 106.031C359.998 105.937 358.91 105.011 358.265 103.48C358.6 103.17 358.701 102.661 358.479 102.238C358.213 101.732 357.586 101.537 357.08 101.802C356.575 102.068 356.379 102.695 356.645 103.201C356.859 103.608 357.307 103.814 357.738 103.74C358.473 105.462 359.735 106.505 361.233 106.615L363.978 108.451L364.264 108.995C364.832 110.076 365.791 110.873 366.965 111.239C368.139 111.605 369.381 111.493 370.462 110.925C371.544 110.358 372.341 109.398 372.706 108.224C373.072 107.05 372.96 105.808 372.393 104.727C372.317 104.584 372.14 104.528 371.997 104.604ZM362.877 99.9286C362.761 99.709 362.846 99.4365 363.066 99.3212C363.285 99.2059 363.558 99.2907 363.673 99.5104C363.789 99.73 363.704 100.002 363.484 100.118C363.264 100.233 362.992 100.148 362.877 99.9286ZM357.163 102.929C357.048 102.709 357.133 102.436 357.353 102.321C357.572 102.206 357.845 102.291 357.96 102.51C358.075 102.73 357.99 103.002 357.771 103.118C357.551 103.233 357.279 103.148 357.163 102.929ZM362.192 106.552C362.509 106.486 362.813 106.376 363.097 106.227C363.41 106.062 363.698 105.85 363.948 105.596L363.917 107.705L362.192 106.552Z" fill="white" fill-opacity="0.6"/>
<path d="M371.623 103.891C371.48 103.966 371.424 104.143 371.5 104.287L371.502 104.29C371.577 104.434 371.754 104.489 371.897 104.414C372.04 104.338 372.096 104.161 372.02 104.018L372.018 104.014C371.943 103.871 371.766 103.816 371.623 103.891Z" fill="white" fill-opacity="0.6"/>
<path d="M369.197 99.2702C368.191 99.7981 367.804 101.048 368.334 102.057C368.817 102.978 369.899 103.384 370.849 103.047L371.123 103.569C371.198 103.712 371.375 103.767 371.518 103.692C371.662 103.617 371.717 103.44 371.642 103.297L371.368 102.775C372.184 102.184 372.464 101.063 371.981 100.142C371.451 99.1336 370.202 98.7422 369.197 99.2702ZM370.325 101.42C370.15 101.512 369.932 101.443 369.84 101.267C369.747 101.09 369.814 100.872 369.989 100.78C370.164 100.688 370.382 100.757 370.475 100.933C370.568 101.11 370.5 101.328 370.325 101.42ZM371.091 102.249L370.835 101.761C371.112 101.476 371.189 101.032 370.994 100.661C370.751 100.198 370.178 100.019 369.717 100.261C369.256 100.503 369.078 101.077 369.321 101.539C369.516 101.911 369.924 102.099 370.317 102.033L370.573 102.521C369.913 102.712 369.185 102.419 368.853 101.785C368.473 101.062 368.75 100.167 369.469 99.7889C370.188 99.4112 371.082 99.692 371.462 100.415C371.795 101.049 371.623 101.815 371.091 102.249Z" fill="white" fill-opacity="0.6"/>
<path d="M368.32 106.845C367.557 107.245 367.263 108.194 367.665 108.959C368.067 109.724 369.014 110.021 369.777 109.62C370.54 109.22 370.833 108.271 370.432 107.506C370.03 106.741 369.082 106.444 368.32 106.845ZM369.505 109.101C369.028 109.352 368.436 109.165 368.184 108.686C367.932 108.207 368.115 107.614 368.592 107.364C369.069 107.113 369.661 107.299 369.913 107.779C370.164 108.258 369.981 108.851 369.505 109.101Z" fill="white" fill-opacity="0.6"/>
<path d="M369.227 104.543C368.773 104.782 368.608 105.367 368.86 105.848C369.113 106.328 369.688 106.525 370.143 106.287C370.597 106.048 370.762 105.462 370.51 104.982C370.257 104.501 369.682 104.304 369.227 104.543ZM369.87 105.768C369.702 105.856 369.481 105.77 369.379 105.575C369.277 105.381 369.331 105.15 369.5 105.062C369.668 104.973 369.889 105.059 369.991 105.254C370.093 105.449 370.039 105.679 369.87 105.768Z" fill="white" fill-opacity="0.6"/>
<path d="M367.185 104.639C366.73 104.877 366.565 105.463 366.818 105.943C367.07 106.424 367.646 106.621 368.1 106.382C368.555 106.144 368.719 105.558 368.467 105.078C368.215 104.597 367.639 104.4 367.185 104.639ZM367.828 105.864C367.659 105.952 367.439 105.866 367.337 105.671C367.234 105.476 367.288 105.246 367.457 105.157C367.626 105.069 367.846 105.155 367.948 105.35C368.05 105.545 367.996 105.775 367.828 105.864Z" fill="white" fill-opacity="0.6"/>
<path d="M365.909 106.285C365.455 106.524 365.29 107.109 365.543 107.59C365.795 108.07 366.37 108.267 366.825 108.029C367.28 107.79 367.444 107.205 367.192 106.724C366.939 106.243 366.364 106.046 365.909 106.285ZM366.553 107.51C366.384 107.598 366.164 107.512 366.062 107.317C365.959 107.123 366.013 106.892 366.182 106.804C366.35 106.715 366.571 106.802 366.673 106.996C366.775 107.191 366.721 107.421 366.553 107.51Z" fill="white" fill-opacity="0.6"/>
</g>
<g clip-path="url(#clip6)">
<path d="M191.969 29.1965C191.875 29.1432 191.756 29.176 191.702 29.2698C190.975 30.5497 189.342 30.9991 188.062 30.2717C186.782 29.5442 186.333 27.9112 187.06 26.6313L187.263 26.275L189.191 25.0768C190.137 24.9885 190.943 24.3194 191.432 23.2209C191.717 23.2783 192.019 23.1511 192.17 22.8855C192.358 22.5544 192.242 22.1321 191.91 21.9439C191.579 21.7558 191.157 21.872 190.969 22.203C190.811 22.4812 190.868 22.8237 191.086 23.0377C190.646 24.043 189.925 24.644 189.09 24.6931C188.36 24.7361 187.66 24.3444 187.308 23.6952C186.901 22.9439 187.029 21.9998 187.655 21.0867C187.95 21.1634 188.272 21.0369 188.43 20.7597C188.618 20.4287 188.501 20.0063 188.17 19.8182C187.839 19.63 187.417 19.7462 187.229 20.0773C187.077 20.344 187.123 20.67 187.32 20.885C186.619 21.9173 186.488 23.0008 186.965 23.881L186.923 26.082L186.721 26.4383C186.318 27.1462 186.216 27.9714 186.434 28.7617C186.652 29.5521 187.161 30.2089 187.869 30.6113C188.577 31.0137 189.402 31.1155 190.193 30.8979C190.983 30.6804 191.64 30.1708 192.042 29.4628C192.095 29.369 192.063 29.2498 191.969 29.1965ZM191.309 22.396C191.39 22.2522 191.574 22.2018 191.717 22.2835C191.861 22.3652 191.912 22.5486 191.83 22.6924C191.748 22.8362 191.565 22.8867 191.421 22.805C191.277 22.7232 191.227 22.5398 191.309 22.396ZM187.568 20.2703C187.65 20.1265 187.834 20.076 187.977 20.1577C188.121 20.2394 188.172 20.4229 188.09 20.5667C188.008 20.7104 187.825 20.7609 187.681 20.6792C187.537 20.5975 187.487 20.414 187.568 20.2703ZM187.346 24.3961C187.497 24.5501 187.668 24.6816 187.854 24.7871C188.059 24.9037 188.282 24.9885 188.514 25.0376L187.32 25.7798L187.346 24.3961Z" fill="white" fill-opacity="0.6"/>
<path d="M192.234 28.7301C192.14 28.6768 192.021 28.7096 191.968 28.8034L191.966 28.8058C191.913 28.8996 191.946 29.0188 192.04 29.0721C192.133 29.1254 192.253 29.0926 192.306 28.9988L192.307 28.9964C192.36 28.9026 192.328 28.7834 192.234 28.7301Z" fill="white" fill-opacity="0.6"/>
<path d="M193.953 25.7051C193.295 25.331 192.454 25.564 192.079 26.2245C191.736 26.8271 191.898 27.5804 192.429 27.9919L192.235 28.3335C192.181 28.4273 192.214 28.5466 192.308 28.5999C192.402 28.6532 192.521 28.6203 192.574 28.5266L192.768 28.1849C193.394 28.4305 194.124 28.184 194.466 27.5814C194.841 26.9209 194.611 26.0792 193.953 25.7051ZM193.153 27.1124C193.039 27.0472 192.999 26.9003 193.065 26.7848C193.13 26.6693 193.277 26.6283 193.391 26.6935C193.506 26.7586 193.546 26.9056 193.48 27.0211C193.415 27.1366 193.268 27.1775 193.153 27.1124ZM192.964 27.8406L193.146 27.5213C193.405 27.574 193.682 27.4575 193.82 27.2141C193.992 26.9114 193.886 26.5255 193.584 26.3539C193.283 26.1823 192.897 26.289 192.725 26.5917C192.587 26.835 192.628 27.132 192.806 27.3283L192.625 27.6475C192.28 27.3466 192.183 26.8323 192.418 26.4175C192.687 25.9443 193.289 25.7771 193.76 26.0447C194.231 26.3124 194.395 26.9151 194.126 27.3883C193.891 27.8032 193.399 27.9828 192.964 27.8406Z" fill="white" fill-opacity="0.6"/>
<path d="M189.387 27.94C188.888 27.6562 188.25 27.8329 187.966 28.3338C187.681 28.8347 187.855 29.4731 188.355 29.7569C188.854 30.0407 189.492 29.864 189.777 29.3631C190.061 28.8622 189.887 28.2238 189.387 27.94ZM188.548 29.4173C188.236 29.24 188.127 28.8405 188.305 28.5268C188.483 28.2132 188.882 28.1023 189.194 28.2796C189.506 28.4569 189.615 28.8564 189.437 29.1701C189.259 29.4837 188.86 29.5946 188.548 29.4173Z" fill="white" fill-opacity="0.6"/>
<path d="M191.006 27.6205C190.708 27.4514 190.32 27.5698 190.142 27.8845C189.963 28.1992 190.059 28.5928 190.357 28.762C190.655 28.9312 191.042 28.8127 191.221 28.498C191.4 28.1833 191.303 27.7897 191.006 27.6205ZM190.55 28.4224C190.44 28.3596 190.409 28.2049 190.481 28.0775C190.554 27.95 190.702 27.8974 190.813 27.9601C190.923 28.0228 190.954 28.1776 190.882 28.305C190.809 28.4325 190.66 28.4851 190.55 28.4224Z" fill="white" fill-opacity="0.6"/>
<path d="M190.217 26.5089C189.919 26.3397 189.531 26.4582 189.352 26.7729C189.174 27.0876 189.27 27.4813 189.568 27.6504C189.865 27.8196 190.253 27.7012 190.432 27.3864C190.611 27.0717 190.514 26.6781 190.217 26.5089ZM189.761 27.3108C189.65 27.2481 189.62 27.0934 189.692 26.9659C189.765 26.8384 189.913 26.7858 190.024 26.8485C190.134 26.9112 190.165 27.066 190.092 27.1934C190.02 27.3209 189.871 27.3735 189.761 27.3108Z" fill="white" fill-opacity="0.6"/>
<path d="M188.834 26.3861C188.536 26.2169 188.149 26.3353 187.97 26.65C187.791 26.9647 187.887 27.3584 188.185 27.5276C188.483 27.6967 188.87 27.5783 189.049 27.2636C189.228 26.9489 189.131 26.5552 188.834 26.3861ZM188.378 27.188C188.268 27.1253 188.237 26.9705 188.309 26.8431C188.382 26.7156 188.53 26.663 188.641 26.7257C188.751 26.7884 188.782 26.9432 188.71 27.0706C188.637 27.198 188.488 27.2507 188.378 27.188Z" fill="white" fill-opacity="0.6"/>
</g>
<g clip-path="url(#clip7)">
<path d="M16.2245 27.9229C16.1307 27.8696 16.0115 27.9024 15.9582 27.9962C15.2308 29.2761 13.5977 29.7255 12.3178 28.9981C11.038 28.2706 10.5885 26.6376 11.316 25.3577L11.5185 25.0014L13.4468 23.8032C14.3928 23.7149 15.199 23.0458 15.688 21.9473C15.9724 22.0047 16.2743 21.8775 16.4253 21.6118C16.6134 21.2808 16.4972 20.8584 16.1662 20.6703C15.8351 20.4821 15.4128 20.5984 15.2246 20.9294C15.0665 21.2076 15.1234 21.5501 15.342 21.7641C14.9017 22.7694 14.1802 23.3704 13.3455 23.4195C12.6154 23.4624 11.9161 23.0708 11.564 22.4216C11.1565 21.6703 11.2843 20.7261 11.9111 19.8131C12.2059 19.8898 12.5277 19.7633 12.6852 19.4861C12.8734 19.1551 12.7571 18.7327 12.4261 18.5446C12.0951 18.3564 11.6727 18.4726 11.4845 18.8036C11.3329 19.0704 11.3791 19.3963 11.5758 19.6114C10.8745 20.6437 10.7433 21.7272 11.2204 22.6074L11.1789 24.8083L10.9764 25.1647C10.574 25.8726 10.4722 26.6978 10.6897 27.4881C10.9072 28.2784 11.4169 28.9353 12.1248 29.3377C12.8328 29.74 13.6579 29.8418 14.4482 29.6243C15.2386 29.4068 15.8954 28.8972 16.2978 28.1892C16.3511 28.0954 16.3183 27.9762 16.2245 27.9229ZM15.5642 21.1224C15.6459 20.9786 15.8294 20.9281 15.9731 21.0099C16.1169 21.0916 16.1674 21.275 16.0857 21.4188C16.004 21.5626 15.8205 21.6131 15.6767 21.5313C15.533 21.4496 15.4825 21.2662 15.5642 21.1224ZM11.8241 18.9967C11.9058 18.8529 12.0893 18.8024 12.233 18.8841C12.3768 18.9658 12.4273 19.1493 12.3456 19.293C12.2639 19.4368 12.0804 19.4873 11.9366 19.4056C11.7929 19.3239 11.7424 19.1404 11.8241 18.9967ZM11.6014 23.1225C11.7526 23.2765 11.9239 23.4079 12.1097 23.5135C12.3148 23.6301 12.5375 23.7149 12.7697 23.764L11.5753 24.5062L11.6014 23.1225Z" fill="white" fill-opacity="0.6"/>
<path d="M16.4896 27.4565C16.3958 27.4032 16.2766 27.436 16.2233 27.5298L16.2219 27.5322C16.1686 27.6259 16.2014 27.7452 16.2952 27.7985C16.389 27.8518 16.5082 27.819 16.5615 27.7252L16.5629 27.7228C16.6162 27.629 16.5834 27.5098 16.4896 27.4565Z" fill="white" fill-opacity="0.6"/>
<path d="M18.2089 24.4315C17.5507 24.0574 16.7099 24.2904 16.3345 24.9509C15.992 25.5535 16.1537 26.3068 16.6845 26.7183L16.4903 27.0599C16.437 27.1537 16.4698 27.2729 16.5636 27.3262C16.6574 27.3795 16.7766 27.3467 16.8299 27.2529L17.0241 26.9113C17.6493 27.1569 18.3793 26.9104 18.7218 26.3078C19.0972 25.6473 18.8671 24.8056 18.2089 24.4315ZM17.4091 25.8388C17.2944 25.7736 17.2545 25.6266 17.3202 25.5111C17.3858 25.3956 17.5325 25.3547 17.6472 25.4199C17.7618 25.485 17.8017 25.632 17.736 25.7475C17.6704 25.863 17.5237 25.9039 17.4091 25.8388ZM17.2198 26.5669L17.4013 26.2477C17.6611 26.3004 17.9373 26.1838 18.0756 25.9405C18.2477 25.6378 18.1421 25.2519 17.8402 25.0803C17.5383 24.9087 17.1527 25.0154 16.9806 25.3181C16.8423 25.5614 16.8835 25.8584 17.0617 26.0547L16.8802 26.3739C16.5355 26.073 16.4383 25.5587 16.6741 25.1439C16.943 24.6707 17.545 24.5034 18.0159 24.7711C18.4868 25.0388 18.6511 25.6415 18.3822 26.1147C18.1464 26.5296 17.6548 26.7092 17.2198 26.5669Z" fill="white" fill-opacity="0.6"/>
<path d="M13.6431 26.6664C13.1438 26.3826 12.506 26.5593 12.2213 27.0602C11.9366 27.5611 12.1112 28.1995 12.6104 28.4833C13.1097 28.7671 13.7475 28.5904 14.0322 28.0895C14.3169 27.5886 14.1424 26.9502 13.6431 26.6664ZM12.8035 28.1437C12.4914 27.9663 12.3826 27.5669 12.5609 27.2532C12.7392 26.9396 13.1381 26.8287 13.4501 27.006C13.7621 27.1833 13.8709 27.5828 13.6926 27.8965C13.5144 28.2101 13.1155 28.321 12.8035 28.1437Z" fill="white" fill-opacity="0.6"/>
<path d="M15.2614 26.3469C14.9638 26.1777 14.5762 26.2962 14.3973 26.6109C14.2184 26.9256 14.315 27.3192 14.6126 27.4884C14.9103 27.6575 15.298 27.5391 15.4768 27.2244C15.6557 26.9097 15.5591 26.5161 15.2614 26.3469ZM14.8057 27.1488C14.6953 27.086 14.6645 26.9313 14.7369 26.8039C14.8093 26.6764 14.958 26.6237 15.0684 26.6865C15.1788 26.7492 15.2097 26.904 15.1372 27.0314C15.0648 27.1588 14.916 27.2115 14.8057 27.1488Z" fill="white" fill-opacity="0.6"/>
<path d="M14.4723 25.2353C14.1747 25.0661 13.7871 25.1846 13.6082 25.4993C13.4293 25.814 13.5259 26.2076 13.8235 26.3768C14.1212 26.546 14.5088 26.4275 14.6877 26.1128C14.8666 25.7981 14.77 25.4045 14.4723 25.2353ZM14.0166 26.0372C13.9062 25.9745 13.8753 25.8198 13.9478 25.6923C14.0202 25.5648 14.1689 25.5122 14.2793 25.5749C14.3897 25.6376 14.4205 25.7924 14.3481 25.9198C14.2757 26.0473 14.1269 26.0999 14.0166 26.0372Z" fill="white" fill-opacity="0.6"/>
<path d="M13.0896 25.1125C12.7919 24.9433 12.4043 25.0617 12.2254 25.3764C12.0465 25.6911 12.1432 26.0848 12.4408 26.2539C12.7384 26.4231 13.1261 26.3047 13.3049 25.99C13.4838 25.6753 13.3872 25.2816 13.0896 25.1125ZM12.6338 25.9144C12.5234 25.8516 12.4926 25.6969 12.565 25.5695C12.6375 25.442 12.7862 25.3894 12.8965 25.4521C13.0069 25.5148 13.0377 25.6695 12.9653 25.797C12.8929 25.9244 12.7441 25.9771 12.6338 25.9144Z" fill="white" fill-opacity="0.6"/>
</g>
<g clip-path="url(#clip8)">
<path d="M281.138 159.137L279.938 160.032C279.637 159.831 279.23 159.83 278.924 160.058L275.099 162.911C274.793 163.139 274.679 163.531 274.786 163.876L273.586 164.771C273.078 165.15 272.973 165.871 273.352 166.378L280.598 176.091C280.976 176.598 281.697 176.703 282.205 176.325L289.757 170.691C290.264 170.312 290.369 169.591 289.99 169.084L282.745 159.371C282.366 158.864 281.645 158.759 281.138 159.137ZM275.39 163.791C275.293 163.661 275.32 163.477 275.45 163.381L279.274 160.528C279.404 160.431 279.588 160.458 279.684 160.587L279.962 160.96C280.059 161.09 280.032 161.274 279.903 161.37L276.078 164.224C275.949 164.32 275.765 164.293 275.668 164.164L275.39 163.791ZM289.406 170.221L281.854 175.855C281.606 176.04 281.253 175.989 281.067 175.74L273.822 166.028C273.636 165.779 273.688 165.426 273.936 165.241L275.095 164.376L275.199 164.514C275.488 164.903 276.04 164.983 276.429 164.693L280.253 161.84C280.642 161.55 280.722 160.999 280.432 160.61L280.329 160.472L281.488 159.607C281.737 159.422 282.09 159.473 282.275 159.722L289.521 169.434L289.521 169.434C289.706 169.683 289.655 170.036 289.406 170.221Z" fill="white" fill-opacity="0.6"/>
<path d="M282.598 171.998C282.438 171.977 282.29 172.089 282.269 172.25L282.133 173.271L281.941 173.243C281.781 173.22 281.632 173.331 281.609 173.491C281.586 173.651 281.697 173.799 281.857 173.823L282.342 173.893C282.419 173.905 282.497 173.885 282.559 173.838C282.56 173.838 282.56 173.838 282.561 173.837C282.623 173.79 282.664 173.72 282.675 173.642L282.85 172.327C282.871 172.167 282.758 172.019 282.598 171.998Z" fill="white" fill-opacity="0.6"/>
<path d="M280.267 163.398C280.08 163.538 279.969 163.744 279.939 163.968C279.912 163.913 279.879 163.859 279.841 163.807C279.527 163.386 278.955 163.28 278.567 163.57C278.179 163.859 278.118 164.438 278.432 164.858C278.47 164.91 278.512 164.956 278.558 164.998C278.335 164.963 278.105 165.011 277.918 165.15C277.53 165.44 277.469 166.018 277.783 166.439C278.097 166.86 278.669 166.966 279.057 166.676C279.104 166.641 279.146 166.602 279.183 166.56C279.222 166.638 279.268 166.714 279.322 166.787C279.781 167.402 280.628 167.549 281.211 167.114C281.794 166.679 281.895 165.825 281.436 165.21C281.381 165.138 281.322 165.072 281.258 165.012C281.309 164.989 281.359 164.96 281.405 164.925C281.794 164.635 281.854 164.057 281.54 163.636C281.227 163.215 280.655 163.108 280.267 163.398ZM278.707 166.207C278.579 166.302 278.372 166.248 278.253 166.088C278.134 165.929 278.141 165.715 278.269 165.62C278.396 165.525 278.604 165.579 278.723 165.738C278.841 165.897 278.834 166.112 278.707 166.207ZM280.033 164.526C280.054 164.568 280.078 164.61 280.105 164.649C280.07 164.655 280.036 164.662 280.002 164.67C280.017 164.623 280.027 164.575 280.033 164.526ZM278.917 164.039C279.045 163.944 279.252 163.999 279.371 164.158C279.49 164.317 279.483 164.531 279.355 164.626C279.228 164.721 279.02 164.667 278.901 164.508C278.783 164.349 278.79 164.134 278.917 164.039ZM279.213 165.259C279.195 165.289 279.179 165.32 279.164 165.351C279.133 165.314 279.101 165.28 279.066 165.248C279.115 165.255 279.164 165.259 279.213 165.259ZM280.861 166.644C280.537 166.886 280.058 166.793 279.792 166.437C279.526 166.081 279.574 165.594 279.897 165.353C280.221 165.111 280.7 165.205 280.966 165.561C281.232 165.917 281.184 166.403 280.861 166.644ZM281.055 164.455C280.928 164.55 280.72 164.496 280.601 164.337C280.482 164.177 280.49 163.963 280.617 163.868C280.744 163.773 280.952 163.827 281.071 163.986C281.19 164.145 281.182 164.36 281.055 164.455Z" fill="white" fill-opacity="0.6"/>
<path d="M285.761 167.717L282.336 170.272C282.207 170.368 282.18 170.552 282.277 170.682C282.373 170.811 282.557 170.838 282.687 170.741L286.112 168.186C286.241 168.089 286.268 167.906 286.171 167.776C286.074 167.647 285.891 167.62 285.761 167.717Z" fill="white" fill-opacity="0.6"/>
<path d="M281.547 170.589C281.386 170.568 281.239 170.68 281.218 170.841L281.082 171.862L280.89 171.834C280.73 171.811 280.581 171.922 280.558 172.082C280.534 172.242 280.645 172.391 280.806 172.414L281.291 172.484C281.368 172.496 281.446 172.476 281.508 172.429C281.509 172.429 281.509 172.429 281.51 172.428C281.572 172.381 281.613 172.311 281.624 172.233L281.799 170.918C281.82 170.758 281.707 170.61 281.547 170.589Z" fill="white" fill-opacity="0.6"/>
<path d="M280.496 169.18C280.335 169.159 280.188 169.271 280.167 169.432L280.031 170.453L279.839 170.425C279.679 170.402 279.53 170.513 279.507 170.673C279.483 170.833 279.594 170.982 279.754 171.005L280.24 171.075C280.317 171.087 280.395 171.067 280.457 171.02C280.458 171.02 280.458 171.02 280.459 171.019C280.521 170.972 280.562 170.902 280.572 170.824L280.748 169.509C280.769 169.349 280.656 169.202 280.496 169.18Z" fill="white" fill-opacity="0.6"/>
<path d="M284.936 170.525L283.387 171.681C283.258 171.777 283.231 171.961 283.328 172.091C283.424 172.22 283.608 172.247 283.738 172.15L285.286 170.995C285.416 170.898 285.443 170.715 285.346 170.585C285.249 170.455 285.066 170.428 284.936 170.525Z" fill="white" fill-opacity="0.6"/>
<path d="M285.642 169.999L285.634 170.004C285.504 170.101 285.478 170.285 285.574 170.415C285.671 170.544 285.855 170.571 285.984 170.474L285.992 170.468C286.122 170.372 286.148 170.188 286.052 170.058C285.955 169.929 285.771 169.902 285.642 169.999Z" fill="white" fill-opacity="0.6"/>
<path d="M284.71 166.308L284.702 166.313C284.573 166.41 284.546 166.594 284.643 166.723C284.74 166.853 284.923 166.88 285.053 166.783L285.06 166.777C285.19 166.68 285.217 166.497 285.12 166.367C285.023 166.238 284.84 166.211 284.71 166.308Z" fill="white" fill-opacity="0.6"/>
<path d="M284.005 166.834L281.285 168.863C281.155 168.959 281.129 169.143 281.226 169.273C281.322 169.402 281.506 169.429 281.636 169.332L284.355 167.304C284.485 167.207 284.511 167.023 284.415 166.894C284.318 166.764 284.134 166.737 284.005 166.834Z" fill="white" fill-opacity="0.6"/>
</g>
<g clip-path="url(#clip9)">
<path d="M390.225 18.7073L388.73 18.7727C388.594 18.4373 388.258 18.2068 387.876 18.2235L383.109 18.432C382.728 18.4487 382.413 18.7076 382.307 19.0536L380.812 19.119C380.179 19.1467 379.687 19.6839 379.715 20.3165L380.244 32.4222C380.272 33.0548 380.809 33.547 381.442 33.5193L390.855 33.1076C391.487 33.0799 391.98 32.5427 391.952 31.9101L391.422 19.8044C391.395 19.1717 390.857 18.6796 390.225 18.7073ZM382.855 19.3229C382.848 19.1615 382.974 19.0244 383.135 19.0174L387.902 18.8089C388.063 18.8018 388.2 18.9274 388.207 19.0888L388.228 19.5538C388.235 19.7152 388.109 19.8522 387.948 19.8593L383.181 20.0678C383.02 20.0748 382.882 19.9493 382.875 19.7879L382.855 19.3229ZM390.829 32.5222L381.416 32.9339C381.106 32.9475 380.843 32.7064 380.83 32.3966L380.3 20.2909C380.287 19.981 380.528 19.7179 380.838 19.7044L382.283 19.6412L382.29 19.8135C382.311 20.2977 382.722 20.6743 383.207 20.6531L387.973 20.4446C388.458 20.4235 388.834 20.0123 388.813 19.5282L388.806 19.3558L390.25 19.2926C390.56 19.2791 390.823 19.5201 390.837 19.83L391.366 31.9357L391.367 31.9357C391.38 32.2455 391.139 32.5086 390.829 32.5222Z" fill="white" fill-opacity="0.6"/>
<path d="M384.2 30.1629C384.079 30.055 383.894 30.0654 383.786 30.186L383.1 30.9539L382.957 30.8228C382.837 30.7135 382.652 30.7216 382.543 30.8409C382.434 30.9602 382.442 31.1455 382.561 31.2548L382.923 31.5862C382.98 31.6387 383.056 31.6663 383.133 31.6629C383.134 31.6628 383.134 31.6628 383.135 31.6628C383.213 31.6589 383.287 31.6238 383.339 31.5655L384.223 30.5766C384.331 30.456 384.321 30.2708 384.2 30.1629Z" fill="white" fill-opacity="0.6"/>
<path d="M387.108 21.7407C386.875 21.7509 386.668 21.8593 386.517 22.0274C386.526 21.9664 386.529 21.9035 386.526 21.8394C386.503 21.3149 386.091 20.9054 385.607 20.9266C385.122 20.9478 384.747 21.3917 384.77 21.9162C384.773 21.9803 384.782 22.0426 384.795 22.1027C384.631 21.9484 384.415 21.8585 384.181 21.8687C383.697 21.8899 383.322 22.3338 383.345 22.8583C383.368 23.3829 383.78 23.7924 384.265 23.7712C384.323 23.7686 384.38 23.7598 384.435 23.7455C384.423 23.8321 384.418 23.9211 384.422 24.0118C384.455 24.7784 385.074 25.3762 385.8 25.3444C386.526 25.3127 387.09 24.6631 387.056 23.8966C387.052 23.8059 387.04 23.7176 387.02 23.6324C387.076 23.6419 387.133 23.6457 387.192 23.6432C387.676 23.622 388.051 23.178 388.028 22.6535C388.005 22.129 387.593 21.7195 387.108 21.7407ZM384.239 23.1858C384.08 23.1928 383.939 23.0311 383.93 22.8327C383.922 22.6344 384.048 22.461 384.207 22.4541C384.366 22.4471 384.507 22.6088 384.516 22.8071C384.524 23.0055 384.398 23.1789 384.239 23.1858ZM386.281 22.5424C386.274 22.5887 386.271 22.6361 386.271 22.6842C386.24 22.6693 386.207 22.6558 386.175 22.6435C386.213 22.613 386.248 22.579 386.281 22.5424ZM385.632 21.512C385.791 21.505 385.932 21.6667 385.941 21.865C385.949 22.0633 385.823 22.2367 385.664 22.2437C385.505 22.2506 385.364 22.0889 385.355 21.8906C385.347 21.6923 385.473 21.5189 385.632 21.512ZM385.19 22.6866C385.159 22.7017 385.128 22.718 385.098 22.7356C385.094 22.6876 385.086 22.6407 385.076 22.5951C385.112 22.6287 385.15 22.6595 385.19 22.6866ZM385.774 24.7591C385.371 24.7767 385.027 24.43 385.007 23.9862C384.988 23.5424 385.3 23.1669 385.704 23.1493C386.107 23.1316 386.451 23.4784 386.471 23.9222C386.49 24.366 386.178 24.7414 385.774 24.7591ZM387.166 23.0578C387.007 23.0647 386.866 22.903 386.857 22.7047C386.849 22.5064 386.975 22.333 387.134 22.326C387.293 22.3191 387.434 22.4808 387.443 22.6791C387.451 22.8774 387.325 23.0508 387.166 23.0578Z" fill="white" fill-opacity="0.6"/>
<path d="M389.223 28.4013L384.955 28.588C384.793 28.5951 384.668 28.7319 384.675 28.8935C384.682 29.0552 384.819 29.1805 384.98 29.1734L389.249 28.9867C389.411 28.9796 389.536 28.8429 389.529 28.6812C389.522 28.5196 389.385 28.3942 389.223 28.4013Z" fill="white" fill-opacity="0.6"/>
<path d="M384.123 28.4068C384.003 28.2989 383.817 28.3093 383.71 28.4299L383.023 29.1977L382.88 29.0666C382.761 28.9573 382.575 28.9654 382.466 29.0847C382.357 29.204 382.365 29.3894 382.484 29.4987L382.846 29.83C382.903 29.8826 382.979 29.9101 383.056 29.9067C383.057 29.9067 383.058 29.9067 383.058 29.9066C383.136 29.9027 383.21 29.8677 383.262 29.8093L384.146 28.8204C384.254 28.6998 384.244 28.5146 384.123 28.4068Z" fill="white" fill-opacity="0.6"/>
<path d="M384.046 26.6506C383.926 26.5427 383.741 26.5531 383.633 26.6737L382.946 27.4415L382.803 27.3105C382.684 27.2012 382.499 27.2093 382.389 27.3286C382.28 27.4479 382.288 27.6332 382.407 27.7425L382.769 28.0739C382.826 28.1264 382.902 28.1539 382.98 28.1505C382.98 28.1505 382.981 28.1505 382.981 28.1505C383.06 28.1466 383.133 28.1115 383.185 28.0531L384.07 27.0643C384.177 26.9437 384.167 26.7585 384.046 26.6506Z" fill="white" fill-opacity="0.6"/>
<path d="M386.962 30.2598L385.031 30.3442C384.87 30.3513 384.744 30.4881 384.751 30.6497C384.759 30.8114 384.895 30.9367 385.057 30.9296L386.987 30.8452C387.149 30.8381 387.274 30.7013 387.267 30.5397C387.26 30.378 387.123 30.2527 386.962 30.2598Z" fill="white" fill-opacity="0.6"/>
<path d="M387.841 30.2213L387.832 30.2217C387.67 30.2288 387.545 30.3656 387.552 30.5272C387.559 30.6889 387.696 30.8142 387.857 30.8071L387.867 30.8067C388.028 30.7996 388.154 30.6629 388.147 30.5012C388.14 30.3396 388.003 30.2143 387.841 30.2213Z" fill="white" fill-opacity="0.6"/>
<path d="M389.147 26.6451L389.137 26.6455C388.975 26.6526 388.85 26.7894 388.857 26.951C388.864 27.1127 389.001 27.238 389.163 27.2309L389.172 27.2305C389.334 27.2234 389.459 27.0867 389.452 26.925C389.445 26.7634 389.308 26.6381 389.147 26.6451Z" fill="white" fill-opacity="0.6"/>
<path d="M388.267 26.6836L384.878 26.8319C384.716 26.8389 384.591 26.9757 384.598 27.1373C384.605 27.299 384.742 27.4243 384.903 27.4172L388.293 27.269C388.454 27.2619 388.58 27.1251 388.573 26.9635C388.566 26.8018 388.429 26.6765 388.267 26.6836Z" fill="white" fill-opacity="0.6"/>
</g>
<g clip-path="url(#clip10)">
<path d="M39.8448 54.7554L38.8769 54.513C38.8539 54.2729 38.683 54.0617 38.436 53.9999L35.3504 53.227C35.1034 53.1651 34.8531 53.2708 34.7197 53.4717L33.7518 53.2293C33.3423 53.1267 32.9257 53.3765 32.8231 53.786L30.8604 61.6221C30.7579 62.0316 31.0076 62.4482 31.4171 62.5507L37.5101 64.0768C37.9196 64.1794 38.3362 63.9297 38.4388 63.5202L40.4015 55.6841C40.5041 55.2746 40.2543 54.858 39.8448 54.7554ZM35.0186 53.7479C35.0447 53.6435 35.151 53.5798 35.2555 53.6059L38.3411 54.3788C38.4456 54.4049 38.5093 54.5112 38.4831 54.6157L38.4077 54.9167C38.3816 55.0212 38.2753 55.0849 38.1708 55.0587L35.0852 54.2859C34.9807 54.2597 34.917 54.1534 34.9432 54.0489L35.0186 53.7479ZM37.605 63.6979L31.512 62.1718C31.3114 62.1216 31.1891 61.9175 31.2394 61.717L33.202 53.8809C33.2523 53.6803 33.4563 53.558 33.6569 53.6082L34.5922 53.8425L34.5642 53.954C34.4858 54.2674 34.6769 54.5863 34.9903 54.6648L38.0759 55.4376C38.3893 55.5161 38.7082 55.325 38.7867 55.0116L38.8146 54.9001L39.7499 55.1343C39.9505 55.1846 40.0728 55.3886 40.0226 55.5892L38.0599 63.4253L38.0599 63.4253C38.0097 63.6259 37.8056 63.7482 37.605 63.6979Z" fill="white" fill-opacity="0.6"/>
<path d="M33.8175 60.9303C33.7609 60.8385 33.6406 60.8099 33.5488 60.8665L32.9641 61.2266L32.8976 61.1156C32.8422 61.0231 32.7222 60.9931 32.6297 61.0485C32.5372 61.104 32.5071 61.224 32.5626 61.3165L32.7307 61.597C32.7574 61.6414 32.8006 61.6734 32.8508 61.686C32.8512 61.6861 32.8515 61.6862 32.8519 61.6863C32.9027 61.6987 32.9562 61.6902 33.0007 61.6629L33.7537 61.1991C33.8455 61.1425 33.8741 61.0222 33.8175 60.9303Z" fill="white" fill-opacity="0.6"/>
<path d="M37.2768 56.1014C37.1259 56.0636 36.9726 56.0934 36.8446 56.1722C36.8616 56.1348 36.8756 56.0953 36.886 56.0538C36.9711 55.7143 36.7853 55.3742 36.4719 55.2957C36.1585 55.2172 35.8343 55.4296 35.7493 55.7691C35.7389 55.8105 35.7326 55.852 35.73 55.893C35.6543 55.7632 35.5331 55.6646 35.3822 55.6268C35.0688 55.5483 34.7446 55.7607 34.6596 56.1002C34.5745 56.4397 34.7603 56.7798 35.0737 56.8583C35.1116 56.8678 35.1495 56.8729 35.1872 56.8742C35.1631 56.9273 35.1432 56.9832 35.1285 57.0419C35.0042 57.5382 35.2855 58.0377 35.7556 58.1554C36.2258 58.2732 36.7093 57.9652 36.8336 57.469C36.8483 57.4103 36.8571 57.3516 36.8609 57.2934C36.8947 57.31 36.9306 57.3234 36.9684 57.3329C37.2818 57.4114 37.606 57.199 37.691 56.8595C37.776 56.52 37.5902 56.1799 37.2768 56.1014ZM35.1686 56.4794C35.0659 56.4537 35.0064 56.3235 35.0385 56.1951C35.0707 56.0667 35.1846 55.98 35.2873 56.0057C35.39 56.0315 35.4496 56.1616 35.4174 56.29C35.3853 56.4184 35.2714 56.5051 35.1686 56.4794ZM36.5957 56.4564C36.5827 56.4847 36.5716 56.5143 36.5624 56.5451C36.5451 56.5296 36.5272 56.5149 36.5087 56.5008C36.5387 56.4885 36.5678 56.4736 36.5957 56.4564ZM36.377 55.6746C36.4797 55.7003 36.5393 55.8305 36.5071 55.9589C36.475 56.0873 36.361 56.174 36.2584 56.1483C36.1556 56.1225 36.0961 55.9923 36.1282 55.864C36.1604 55.7356 36.2743 55.6489 36.377 55.6746ZM35.8714 56.3412C35.8484 56.3449 35.8256 56.3494 35.8031 56.355C35.8095 56.3235 35.8136 56.2921 35.8156 56.261C35.8321 56.2893 35.8507 56.3162 35.8714 56.3412ZM35.8505 57.7765C35.5894 57.7111 35.4354 57.4241 35.5074 57.1368C35.5793 56.8496 35.8504 56.6691 36.1115 56.7345C36.3727 56.7999 36.5266 57.0868 36.4547 57.3741C36.3827 57.6614 36.1117 57.8419 35.8505 57.7765ZM37.0633 56.9539C36.9606 56.9282 36.901 56.798 36.9332 56.6697C36.9653 56.5413 37.0792 56.4546 37.1819 56.4803C37.2846 56.506 37.3442 56.6362 37.3121 56.7646C37.2799 56.8929 37.166 56.9797 37.0633 56.9539Z" fill="white" fill-opacity="0.6"/>
<path d="M37.3623 60.7595L34.599 60.0674C34.4944 60.0412 34.3883 60.1048 34.3621 60.2094C34.3359 60.314 34.3995 60.4201 34.5041 60.4463L37.2674 61.1384C37.372 61.1646 37.4781 61.1011 37.5043 60.9964C37.5305 60.8918 37.4669 60.7857 37.3623 60.7595Z" fill="white" fill-opacity="0.6"/>
<path d="M34.1023 59.7935C34.0457 59.7017 33.9254 59.6731 33.8335 59.7297L33.2489 60.0898L33.1824 59.9789C33.1269 59.8864 33.007 59.8563 32.9144 59.9118C32.8219 59.9672 32.7918 60.0872 32.8473 60.1797L33.0154 60.4602C33.0421 60.5046 33.0853 60.5367 33.1355 60.5492C33.1359 60.5493 33.1363 60.5494 33.1367 60.5495C33.1874 60.5619 33.241 60.5534 33.2854 60.5261L34.0384 60.0623C34.1302 60.0057 34.1588 59.8854 34.1023 59.7935Z" fill="white" fill-opacity="0.6"/>
<path d="M34.387 58.6568C34.3304 58.5649 34.2101 58.5363 34.1183 58.5929L33.5336 58.953L33.4671 58.8421C33.4116 58.7496 33.2917 58.7195 33.1991 58.775C33.1066 58.8304 33.0766 58.9504 33.132 59.0429L33.3002 59.3234C33.3268 59.3678 33.37 59.3999 33.4202 59.4124C33.4206 59.4125 33.421 59.4126 33.4214 59.4127C33.4721 59.4251 33.5257 59.4167 33.5701 59.3893L34.3231 58.9255C34.4149 58.8689 34.4435 58.7486 34.387 58.6568Z" fill="white" fill-opacity="0.6"/>
<path d="M35.5638 61.5172L34.3143 61.2042C34.2097 61.178 34.1036 61.2416 34.0774 61.3462C34.0512 61.4508 34.1148 61.5569 34.2194 61.5831L35.4689 61.8961C35.5735 61.9223 35.6796 61.8587 35.7058 61.7541C35.732 61.6494 35.6684 61.5434 35.5638 61.5172Z" fill="white" fill-opacity="0.6"/>
<path d="M36.1331 61.6597L36.127 61.6582C36.0223 61.632 35.9163 61.6956 35.89 61.8002C35.8638 61.9049 35.9274 62.0109 36.0321 62.0371L36.0382 62.0387C36.1428 62.0649 36.2489 62.0013 36.2751 61.8967C36.3013 61.792 36.2377 61.6859 36.1331 61.6597Z" fill="white" fill-opacity="0.6"/>
<path d="M37.647 59.6227L37.6409 59.6212C37.5363 59.595 37.4302 59.6585 37.404 59.7632C37.3778 59.8678 37.4413 59.9739 37.546 60.0001L37.5521 60.0016C37.6567 60.0278 37.7628 59.9643 37.789 59.8596C37.8152 59.755 37.7517 59.6489 37.647 59.6227Z" fill="white" fill-opacity="0.6"/>
<path d="M37.0777 59.4801L34.8837 58.9306C34.7791 58.9044 34.673 58.968 34.6468 59.0726C34.6206 59.1772 34.6842 59.2833 34.7888 59.3095L36.9828 59.859C37.0874 59.8852 37.1935 59.8217 37.2197 59.717C37.2459 59.6124 37.1824 59.5063 37.0777 59.4801Z" fill="white" fill-opacity="0.6"/>
</g>
<g clip-path="url(#clip11)">
<path d="M158.231 89.3568L157.264 89.1143C157.241 88.8742 157.07 88.6631 156.823 88.6012L153.737 87.8284C153.49 87.7665 153.24 87.8722 153.106 88.0731L152.138 87.8307C151.729 87.7281 151.312 87.9778 151.21 88.3873L149.247 96.2234C149.144 96.6329 149.394 97.0495 149.804 97.1521L155.897 98.6782C156.306 98.7808 156.723 98.5311 156.825 98.1216L158.788 90.2854C158.891 89.8759 158.641 89.4593 158.231 89.3568ZM153.405 88.3493C153.431 88.2448 153.538 88.1811 153.642 88.2073L156.728 88.9801C156.832 89.0063 156.896 89.1126 156.87 89.2171L156.794 89.5181C156.768 89.6225 156.662 89.6862 156.557 89.6601L153.472 88.8872C153.367 88.8611 153.304 88.7548 153.33 88.6503L153.405 88.3493ZM155.992 98.2993L149.899 96.7732C149.698 96.723 149.576 96.5189 149.626 96.3183L151.589 88.4822C151.639 88.2816 151.843 88.1594 152.043 88.2096L152.979 88.4439L152.951 88.5554C152.872 88.8688 153.063 89.1876 153.377 89.2661L156.462 90.039C156.776 90.1175 157.095 89.9264 157.173 89.613L157.201 89.5014L158.136 89.7357C158.337 89.7859 158.459 89.99 158.409 90.1905L156.446 98.0267L156.446 98.0267C156.396 98.2272 156.192 98.3495 155.992 98.2993Z" fill="white" fill-opacity="0.6"/>
<path d="M152.204 95.5317C152.148 95.4398 152.027 95.4113 151.935 95.4678L151.351 95.828L151.284 95.717C151.229 95.6245 151.109 95.5945 151.016 95.6499C150.924 95.7054 150.894 95.8253 150.949 95.9178L151.117 96.1983C151.144 96.2428 151.187 96.2748 151.237 96.2874C151.238 96.2875 151.238 96.2876 151.238 96.2877C151.289 96.3001 151.343 96.2916 151.387 96.2642L152.14 95.8004C152.232 95.7439 152.261 95.6235 152.204 95.5317Z" fill="white" fill-opacity="0.6"/>
<path d="M155.663 90.7027C155.512 90.6649 155.359 90.6947 155.231 90.7735C155.248 90.7362 155.262 90.6966 155.273 90.6552C155.358 90.3156 155.172 89.9756 154.858 89.8971C154.545 89.8186 154.221 90.0309 154.136 90.3704C154.125 90.4119 154.119 90.4534 154.117 90.4944C154.041 90.3646 153.92 90.266 153.769 90.2282C153.455 90.1497 153.131 90.3621 153.046 90.7016C152.961 91.0411 153.147 91.3812 153.46 91.4597C153.498 91.4692 153.536 91.4743 153.574 91.4756C153.55 91.5286 153.53 91.5846 153.515 91.6433C153.391 92.1395 153.672 92.639 154.142 92.7568C154.612 92.8745 155.096 92.5666 155.22 92.0704C155.235 92.0117 155.244 91.9529 155.247 91.8948C155.281 91.9114 155.317 91.9248 155.355 91.9342C155.668 92.0127 155.993 91.8004 156.078 91.4608C156.163 91.1213 155.977 90.7812 155.663 90.7027ZM153.555 91.0808C153.453 91.055 153.393 90.9248 153.425 90.7965C153.457 90.6681 153.571 90.5814 153.674 90.6071C153.777 90.6328 153.836 90.763 153.804 90.8914C153.772 91.0198 153.658 91.1065 153.555 91.0808ZM154.982 91.0577C154.969 91.0861 154.958 91.1157 154.949 91.1465C154.932 91.131 154.914 91.1162 154.895 91.1022C154.925 91.0899 154.954 91.0749 154.982 91.0577ZM154.764 90.276C154.866 90.3017 154.926 90.4319 154.894 90.5603C154.862 90.6886 154.748 90.7753 154.645 90.7496C154.542 90.7239 154.483 90.5937 154.515 90.4653C154.547 90.337 154.661 90.2503 154.764 90.276ZM154.258 90.9426C154.235 90.9462 154.212 90.9508 154.19 90.9563C154.196 90.9249 154.2 90.8935 154.202 90.8623C154.219 90.8907 154.237 90.9175 154.258 90.9426ZM154.237 92.3779C153.976 92.3124 153.822 92.0255 153.894 91.7382C153.966 91.4509 154.237 91.2704 154.498 91.3358C154.759 91.4012 154.913 91.6882 154.841 91.9755C154.769 92.2628 154.498 92.4433 154.237 92.3779ZM155.45 91.5553C155.347 91.5296 155.288 91.3994 155.32 91.271C155.352 91.1426 155.466 91.0559 155.569 91.0816C155.671 91.1074 155.731 91.2375 155.699 91.3659C155.666 91.4943 155.553 91.581 155.45 91.5553Z" fill="white" fill-opacity="0.6"/>
<path d="M155.749 95.3609L152.986 94.6688C152.881 94.6426 152.775 94.7061 152.749 94.8108C152.722 94.9154 152.786 95.0215 152.891 95.0477L155.654 95.7398C155.759 95.766 155.865 95.7024 155.891 95.5978C155.917 95.4931 155.853 95.3871 155.749 95.3609Z" fill="white" fill-opacity="0.6"/>
<path d="M152.489 94.3949C152.432 94.303 152.312 94.2745 152.22 94.3311L151.635 94.6912L151.569 94.5802C151.513 94.4877 151.394 94.4577 151.301 94.5131C151.208 94.5686 151.178 94.6885 151.234 94.7811L151.402 95.0616C151.429 95.106 151.472 95.138 151.522 95.1506C151.522 95.1507 151.523 95.1508 151.523 95.1509C151.574 95.1633 151.628 95.1548 151.672 95.1274L152.425 94.6636C152.517 94.6071 152.545 94.4868 152.489 94.3949Z" fill="white" fill-opacity="0.6"/>
<path d="M152.774 93.2581C152.717 93.1662 152.597 93.1377 152.505 93.1943L151.92 93.5544L151.854 93.4434C151.798 93.3509 151.678 93.3209 151.586 93.3763C151.493 93.4318 151.463 93.5518 151.519 93.6443L151.687 93.9248C151.713 93.9692 151.757 94.0012 151.807 94.0138C151.807 94.0139 151.808 94.014 151.808 94.0141C151.859 94.0265 151.912 94.018 151.957 93.9907L152.71 93.5269C152.802 93.4703 152.83 93.35 152.774 93.2581Z" fill="white" fill-opacity="0.6"/>
<path d="M153.95 96.1185L152.701 95.8056C152.596 95.7794 152.49 95.8429 152.464 95.9476C152.438 96.0522 152.501 96.1583 152.606 96.1845L153.855 96.4974C153.96 96.5236 154.066 96.4601 154.092 96.3554C154.119 96.2508 154.055 96.1447 153.95 96.1185Z" fill="white" fill-opacity="0.6"/>
<path d="M154.52 96.2611L154.514 96.2596C154.409 96.2334 154.303 96.2969 154.277 96.4016C154.25 96.5062 154.314 96.6123 154.419 96.6385L154.425 96.64C154.529 96.6662 154.635 96.6027 154.662 96.498C154.688 96.3934 154.624 96.2873 154.52 96.2611Z" fill="white" fill-opacity="0.6"/>
<path d="M156.034 94.2241L156.027 94.2225C155.923 94.1963 155.817 94.2599 155.791 94.3645C155.764 94.4692 155.828 94.5753 155.933 94.6015L155.939 94.603C156.043 94.6292 156.149 94.5656 156.176 94.461C156.202 94.3564 156.138 94.2503 156.034 94.2241Z" fill="white" fill-opacity="0.6"/>
<path d="M155.464 94.0815L153.27 93.532C153.166 93.5058 153.06 93.5693 153.033 93.674C153.007 93.7786 153.071 93.8847 153.175 93.9109L155.369 94.4604C155.474 94.4866 155.58 94.423 155.606 94.3184C155.633 94.2138 155.569 94.1077 155.464 94.0815Z" fill="white" fill-opacity="0.6"/>
</g>
<g clip-path="url(#clip12)">
<path d="M111.151 84.9723L110.029 83.8497C109.918 83.7395 109.771 83.6787 109.615 83.6787C109.458 83.6787 109.311 83.7394 109.201 83.8497L106.849 86.2014C106.739 86.3116 106.678 86.4587 106.678 86.6153C106.678 86.772 106.739 86.9191 106.849 87.0293L107.972 88.1519C108.082 88.2622 108.229 88.3229 108.385 88.3229C108.542 88.3229 108.689 88.2622 108.799 88.1519L111.151 85.8003C111.379 85.572 111.379 85.2006 111.151 84.9723ZM110.875 85.5243L108.523 87.8759C108.487 87.9124 108.438 87.9326 108.386 87.9326C108.333 87.9326 108.284 87.9125 108.248 87.8759L107.125 86.7533C107.088 86.7168 107.068 86.6678 107.068 86.6154C107.068 86.563 107.088 86.5139 107.125 86.4774L109.477 84.1258C109.513 84.0892 109.562 84.0691 109.615 84.0691C109.667 84.0691 109.716 84.0892 109.753 84.1258L110.875 85.2483C110.951 85.3244 110.951 85.4482 110.875 85.5243Z" fill="white" fill-opacity="0.6"/>
<path d="M113.258 86.667L112.592 86.0012L113.258 85.3355C113.736 84.8576 113.999 84.2199 113.999 83.5397C113.999 82.8595 113.736 82.2217 113.258 81.7439C112.78 81.266 112.142 81.0029 111.462 81.0029C110.782 81.0029 110.144 81.266 109.666 81.7439L109 82.4097L108.335 81.7439C107.344 80.7537 105.733 80.7537 104.743 81.7439C104.265 82.2217 104.002 82.8595 104.002 83.5397C104.002 84.2199 104.265 84.8576 104.743 85.3355L105.409 86.0012L104.743 86.667C103.753 87.6572 103.753 89.2684 104.743 90.2586C105.221 90.7364 105.859 90.9996 106.539 90.9996C107.219 90.9996 107.857 90.7364 108.335 90.2586L109.001 89.5928L109.666 90.2586C110.144 90.7364 110.782 90.9996 111.462 90.9996C112.142 90.9996 112.78 90.7364 113.258 90.2586C114.248 89.2683 114.248 87.6572 113.258 86.667ZM105.019 85.0594C104.615 84.6553 104.392 84.1156 104.392 83.5397C104.392 82.9637 104.615 82.424 105.019 82.0199C105.857 81.1818 107.221 81.1818 108.059 82.0199L108.724 82.6857L105.685 85.7252L105.019 85.0594ZM108.059 89.9826C107.655 90.3867 107.115 90.6093 106.539 90.6093C105.963 90.6093 105.423 90.3867 105.019 89.9826C104.181 89.1446 104.181 87.781 105.019 86.943L109.138 82.8237C109.138 82.8237 109.138 82.8237 109.138 82.8236C109.139 82.8236 109.139 82.8236 109.139 82.8236L109.942 82.0199C110.346 81.6157 110.886 81.3932 111.462 81.3932C112.038 81.3932 112.578 81.6157 112.982 82.0199C113.82 82.8579 113.82 84.2215 112.982 85.0594C112.982 85.0595 112.299 85.7426 112.192 85.8493C112.286 85.7554 112.826 85.2154 112.954 85.0869L108.059 89.9826ZM112.956 85.0856C112.96 85.0811 112.964 85.0771 112.968 85.0737L112.956 85.0856ZM112.982 89.9826C112.578 90.3867 112.038 90.6093 111.462 90.6093C110.886 90.6093 110.346 90.3867 109.942 89.9826L109.277 89.3168L112.316 86.2772L112.982 86.943C113.82 87.781 113.82 89.1446 112.982 89.9826Z" fill="white" fill-opacity="0.6"/>
<path d="M105.677 83.2762C105.328 83.2762 105.044 83.562 105.044 83.9133C105.044 84.2645 105.328 84.5503 105.677 84.5503C106.026 84.5503 106.31 84.2645 106.31 83.9133C106.31 83.562 106.026 83.2762 105.677 83.2762ZM105.677 84.16C105.543 84.16 105.435 84.0493 105.435 83.9132C105.435 83.7772 105.543 83.6665 105.677 83.6665C105.811 83.6665 105.919 83.7772 105.919 83.9132C105.919 84.0493 105.811 84.16 105.677 84.16Z" fill="white" fill-opacity="0.6"/>
<path d="M106.891 82.0192C106.542 82.0192 106.258 82.305 106.258 82.6563C106.258 83.0075 106.542 83.2933 106.891 83.2933C107.24 83.2933 107.524 83.0075 107.524 82.6563C107.524 82.305 107.24 82.0192 106.891 82.0192ZM106.891 82.903C106.757 82.903 106.649 82.7923 106.649 82.6562C106.649 82.5202 106.757 82.4095 106.891 82.4095C107.025 82.4095 107.133 82.5202 107.133 82.6562C107.133 82.7923 107.025 82.903 106.891 82.903Z" fill="white" fill-opacity="0.6"/>
<path d="M112.323 87.4514C111.974 87.4514 111.69 87.7371 111.69 88.0884C111.69 88.4397 111.974 88.7254 112.323 88.7254C112.672 88.7254 112.956 88.4397 112.956 88.0884C112.956 87.7371 112.672 87.4514 112.323 87.4514ZM112.323 88.3351C112.189 88.3351 112.081 88.2244 112.081 88.0884C112.081 87.9523 112.189 87.8416 112.323 87.8416C112.457 87.8416 112.565 87.9523 112.565 88.0884C112.565 88.2244 112.457 88.3351 112.323 88.3351Z" fill="white" fill-opacity="0.6"/>
<path d="M111.109 88.7084C110.76 88.7084 110.476 88.9941 110.476 89.3454C110.476 89.6967 110.76 89.9824 111.109 89.9824C111.458 89.9824 111.742 89.6967 111.742 89.3454C111.742 88.9941 111.458 88.7084 111.109 88.7084ZM111.109 89.5921C110.975 89.5921 110.867 89.4814 110.867 89.3454C110.867 89.2093 110.975 89.0987 111.109 89.0987C111.243 89.0987 111.352 89.2093 111.352 89.3454C111.352 89.4814 111.243 89.5921 111.109 89.5921Z" fill="white" fill-opacity="0.6"/>
<path d="M111.414 84.082L110.504 83.1719C110.428 83.0957 110.304 83.0957 110.228 83.1719C110.152 83.2481 110.152 83.3717 110.228 83.4479L111.138 84.358C111.176 84.3961 111.226 84.4152 111.276 84.4152C111.326 84.4152 111.376 84.3961 111.414 84.358C111.49 84.2818 111.49 84.1583 111.414 84.082Z" fill="white" fill-opacity="0.6"/>
<path d="M111.829 84.4964L111.824 84.4919C111.748 84.4159 111.624 84.4161 111.548 84.4925C111.472 84.5689 111.472 84.6924 111.549 84.7685L111.553 84.7729C111.591 84.8109 111.641 84.8298 111.691 84.8298C111.741 84.8298 111.791 84.8107 111.829 84.7724C111.905 84.696 111.905 84.5724 111.829 84.4964Z" fill="white" fill-opacity="0.6"/>
<path d="M106.452 87.2334L106.447 87.229C106.371 87.1528 106.247 87.1528 106.171 87.229C106.095 87.3052 106.095 87.4287 106.171 87.5049L106.176 87.5094C106.214 87.5475 106.264 87.5666 106.314 87.5666C106.364 87.5666 106.414 87.5475 106.452 87.5094C106.528 87.4332 106.528 87.3097 106.452 87.2334Z" fill="white" fill-opacity="0.6"/>
<path d="M107.772 88.5537L106.862 87.6436C106.786 87.5674 106.662 87.5674 106.586 87.6436C106.51 87.7198 106.51 87.8433 106.586 87.9196L107.496 88.8297C107.534 88.8678 107.584 88.8868 107.634 88.8868C107.684 88.8868 107.734 88.8678 107.772 88.8297C107.848 88.7535 107.848 88.6299 107.772 88.5537Z" fill="white" fill-opacity="0.6"/>
</g>
<path d="M300.353 73.2587C299.936 72.841 299.38 72.611 298.789 72.611C298.682 72.611 298.575 72.6187 298.469 72.634C298.57 71.9523 298.348 71.2531 297.844 70.7494C297.426 70.3316 296.871 70.1016 296.28 70.1016C295.689 70.1016 295.134 70.3316 294.716 70.7494C294.324 71.1409 294.095 71.661 294.07 72.2139C294.05 72.6727 294.171 73.1217 294.415 73.5033L289.523 78.3958C289.145 78.1167 288.689 77.9656 288.212 77.9656C287.621 77.9656 287.065 78.1957 286.648 78.6134C286.23 79.0311 286 79.5865 286 80.1773C286 80.7681 286.23 81.3236 286.648 81.7413C287.065 82.159 287.621 82.389 288.212 82.389C288.319 82.389 288.426 82.3813 288.532 82.366C288.431 83.0477 288.653 83.7469 289.157 84.2506C289.575 84.6684 290.13 84.8984 290.721 84.8984C291.312 84.8984 291.867 84.6684 292.285 84.2506C292.697 83.8385 292.927 83.2906 292.933 82.7079C292.937 82.2231 292.786 81.7594 292.503 81.3756L297.364 76.5142C297.762 76.851 298.262 77.0344 298.789 77.0344C299.38 77.0344 299.935 76.8044 300.353 76.3866C301.216 75.5242 301.216 74.1211 300.353 73.2587ZM299.939 75.9723C299.632 76.2793 299.224 76.4484 298.789 76.4484C298.355 76.4484 297.947 76.2793 297.64 75.9723C297.619 75.9519 297.599 75.9302 297.579 75.9077C297.525 75.8478 297.449 75.8127 297.368 75.8105C297.288 75.8084 297.21 75.8393 297.153 75.8962L291.898 81.1511C291.786 81.2639 291.784 81.4462 291.894 81.5612C292.502 82.1945 292.492 83.2152 291.871 83.8363C291.564 84.1433 291.155 84.3125 290.721 84.3125C290.287 84.3125 289.879 84.1433 289.571 83.8363C289.104 83.3688 288.966 82.6721 289.22 82.0616C289.265 81.952 289.24 81.8258 289.157 81.7419C289.1 81.6858 289.026 81.6561 288.949 81.6561C288.911 81.6561 288.873 81.6634 288.837 81.6785C288.638 81.7611 288.428 81.803 288.212 81.803C287.777 81.803 287.369 81.634 287.062 81.327C286.755 81.0198 286.586 80.6116 286.586 80.1773C286.586 79.7431 286.755 79.3348 287.062 79.0277C287.369 78.7206 287.777 78.5516 288.212 78.5516C288.633 78.5516 289.033 78.7123 289.337 79.0042C289.452 79.1146 289.634 79.1128 289.747 79L295.006 73.7408C295.113 73.634 295.121 73.4635 295.025 73.3471C294.489 72.6983 294.534 71.7596 295.13 71.1637C295.437 70.8566 295.846 70.6875 296.28 70.6875C296.714 70.6875 297.122 70.8566 297.43 71.1637C297.897 71.6312 298.035 72.3278 297.781 72.9384C297.736 73.048 297.761 73.1742 297.844 73.2581C297.928 73.342 298.055 73.367 298.164 73.3215C298.363 73.2389 298.573 73.197 298.789 73.197C299.224 73.197 299.632 73.3661 299.939 73.6731C300.573 74.307 300.573 75.3384 299.939 75.9723Z" fill="white" fill-opacity="0.6"/>
<path d="M292.424 77.359C292.31 77.2446 292.124 77.2446 292.01 77.359L290.643 78.7253C290.529 78.8397 290.529 79.0252 290.643 79.1397C290.701 79.1969 290.776 79.2255 290.851 79.2255C290.926 79.2255 291.001 79.1968 291.058 79.1397L292.424 77.7733C292.539 77.6589 292.539 77.4734 292.424 77.359Z" fill="white" fill-opacity="0.6"/>
<path d="M293.047 76.7365C292.932 76.6221 292.747 76.6221 292.632 76.7365L292.626 76.7432C292.511 76.8576 292.511 77.0431 292.626 77.1575C292.683 77.2148 292.758 77.2434 292.833 77.2434C292.908 77.2434 292.983 77.2147 293.04 77.1575L293.047 77.1508C293.161 77.0364 293.161 76.8509 293.047 76.7365Z" fill="white" fill-opacity="0.6"/>
<path d="M116.353 138.259C115.936 137.841 115.38 137.611 114.789 137.611C114.682 137.611 114.575 137.619 114.469 137.634C114.57 136.952 114.348 136.253 113.844 135.749C113.426 135.332 112.871 135.102 112.28 135.102C111.689 135.102 111.134 135.332 110.716 135.749C110.324 136.141 110.095 136.661 110.07 137.214C110.05 137.673 110.171 138.122 110.415 138.503L105.523 143.396C105.145 143.117 104.689 142.966 104.212 142.966C103.621 142.966 103.065 143.196 102.648 143.613C102.23 144.031 102 144.587 102 145.177C102 145.768 102.23 146.324 102.648 146.741C103.065 147.159 103.621 147.389 104.212 147.389C104.319 147.389 104.426 147.381 104.532 147.366C104.431 148.048 104.653 148.747 105.157 149.251C105.575 149.668 106.13 149.898 106.721 149.898C107.312 149.898 107.867 149.668 108.285 149.251C108.697 148.839 108.927 148.291 108.933 147.708C108.937 147.223 108.786 146.759 108.503 146.376L113.364 141.514C113.762 141.851 114.262 142.034 114.789 142.034C115.38 142.034 115.935 141.804 116.353 141.387C117.216 140.524 117.216 139.121 116.353 138.259ZM115.939 140.972C115.632 141.279 115.224 141.448 114.789 141.448C114.355 141.448 113.947 141.279 113.64 140.972C113.619 140.952 113.599 140.93 113.579 140.908C113.525 140.848 113.449 140.813 113.368 140.81C113.288 140.808 113.21 140.839 113.153 140.896L107.898 146.151C107.786 146.264 107.784 146.446 107.894 146.561C108.502 147.195 108.492 148.215 107.871 148.836C107.564 149.143 107.155 149.312 106.721 149.312C106.287 149.312 105.879 149.143 105.571 148.836C105.104 148.369 104.966 147.672 105.22 147.062C105.265 146.952 105.24 146.826 105.157 146.742C105.1 146.686 105.026 146.656 104.949 146.656C104.911 146.656 104.873 146.663 104.837 146.679C104.638 146.761 104.428 146.803 104.212 146.803C103.777 146.803 103.369 146.634 103.062 146.327C102.755 146.02 102.586 145.612 102.586 145.177C102.586 144.743 102.755 144.335 103.062 144.028C103.369 143.721 103.777 143.552 104.212 143.552C104.633 143.552 105.033 143.712 105.337 144.004C105.452 144.115 105.634 144.113 105.747 144L111.006 138.741C111.113 138.634 111.121 138.464 111.025 138.347C110.489 137.698 110.534 136.76 111.13 136.164C111.437 135.857 111.846 135.687 112.28 135.687C112.714 135.687 113.122 135.857 113.43 136.164C113.897 136.631 114.035 137.328 113.781 137.938C113.736 138.048 113.761 138.174 113.844 138.258C113.928 138.342 114.055 138.367 114.164 138.321C114.363 138.239 114.573 138.197 114.789 138.197C115.224 138.197 115.632 138.366 115.939 138.673C116.573 139.307 116.573 140.338 115.939 140.972Z" fill="white" fill-opacity="0.6"/>
<path d="M108.424 142.359C108.31 142.245 108.124 142.245 108.01 142.359L106.643 143.725C106.529 143.84 106.529 144.025 106.643 144.14C106.701 144.197 106.776 144.225 106.851 144.225C106.926 144.225 107.001 144.197 107.058 144.14L108.424 142.773C108.539 142.659 108.539 142.473 108.424 142.359Z" fill="white" fill-opacity="0.6"/>
<path d="M109.047 141.736C108.932 141.622 108.747 141.622 108.632 141.736L108.626 141.743C108.511 141.858 108.511 142.043 108.626 142.158C108.683 142.215 108.758 142.243 108.833 142.243C108.908 142.243 108.983 142.215 109.04 142.158L109.047 142.151C109.161 142.036 109.161 141.851 109.047 141.736Z" fill="white" fill-opacity="0.6"/>
<g clip-path="url(#clip13)">
<path d="M296.959 126.951C296.498 126.951 296.038 126.78 295.687 126.437C295.52 126.275 295.389 126.086 295.295 125.876C295.052 125.333 294.618 124.9 294.075 124.657C293.865 124.563 293.676 124.431 293.514 124.265C292.828 123.561 292.83 122.417 293.519 121.716C293.799 121.43 294.156 121.248 294.551 121.19C294.775 121.156 294.975 121.056 295.128 120.9L295.14 120.888C295.567 120.461 296.176 120.274 296.855 120.362C297.506 120.446 298.147 120.775 298.661 121.289C299.175 121.803 299.505 122.445 299.589 123.096C299.676 123.775 299.489 124.384 299.062 124.811L299.052 124.822C298.895 124.975 298.795 125.175 298.762 125.4C298.703 125.794 298.522 126.151 298.236 126.432C297.884 126.778 297.421 126.951 296.959 126.951ZM296.538 120.925C296.157 120.925 295.809 121.048 295.554 121.303L295.546 121.311C295.303 121.559 294.988 121.717 294.637 121.77C294.369 121.809 294.127 121.933 293.937 122.126C293.47 122.602 293.468 123.378 293.934 123.855C294.044 123.968 294.172 124.058 294.314 124.122C294.989 124.424 295.528 124.962 295.83 125.637C295.893 125.779 295.983 125.907 296.096 126.017C296.573 126.483 297.349 126.482 297.825 126.014C298.019 125.824 298.142 125.581 298.182 125.314C298.234 124.962 298.392 124.648 298.64 124.404L298.648 124.396C298.943 124.101 299.071 123.665 299.007 123.171C298.94 122.648 298.67 122.127 298.247 121.704C297.738 121.195 297.102 120.925 296.538 120.925Z" fill="white" fill-opacity="0.6"/>
<path d="M298.91 120.02C298.572 120.02 298.269 119.901 298.044 119.676C297.782 119.413 297.663 119.045 297.71 118.638C297.754 118.256 297.942 117.883 298.238 117.587C298.534 117.291 298.907 117.103 299.288 117.059C299.695 117.012 300.064 117.131 300.326 117.393C300.589 117.656 300.707 118.024 300.66 118.431C300.616 118.813 300.429 119.186 300.133 119.482C299.837 119.778 299.464 119.966 299.082 120.01C299.024 120.016 298.966 120.02 298.91 120.02ZM299.458 117.636C299.425 117.636 299.391 117.638 299.356 117.642C299.105 117.671 298.855 117.798 298.652 118.001C298.449 118.204 298.322 118.454 298.293 118.705C298.266 118.93 298.326 119.128 298.459 119.261C298.592 119.394 298.79 119.453 299.015 119.427C299.266 119.398 299.516 119.271 299.719 119.068C299.921 118.865 300.049 118.615 300.078 118.364C300.104 118.139 300.045 117.941 299.912 117.808C299.799 117.695 299.641 117.636 299.458 117.636Z" fill="white" fill-opacity="0.6"/>
<path d="M294.975 120.169C294.637 120.169 294.334 120.05 294.109 119.825C293.847 119.562 293.728 119.194 293.775 118.787C293.819 118.405 294.006 118.032 294.302 117.736C294.598 117.44 294.971 117.253 295.353 117.209C295.76 117.162 296.129 117.28 296.391 117.543C296.654 117.805 296.772 118.174 296.725 118.581C296.681 118.962 296.494 119.336 296.198 119.632C295.902 119.928 295.529 120.115 295.147 120.159C295.089 120.166 295.031 120.169 294.975 120.169ZM295.523 117.785C295.489 117.785 295.455 117.787 295.42 117.791C295.17 117.82 294.92 117.948 294.717 118.15C294.514 118.353 294.386 118.603 294.357 118.854C294.331 119.08 294.39 119.277 294.523 119.41C294.657 119.544 294.854 119.603 295.08 119.577C295.331 119.548 295.58 119.42 295.783 119.217C295.986 119.014 296.114 118.764 296.143 118.513C296.169 118.288 296.11 118.09 295.977 117.957C295.864 117.845 295.705 117.785 295.523 117.785Z" fill="white" fill-opacity="0.6"/>
<path d="M301.239 122.349C300.901 122.349 300.598 122.23 300.374 122.005C300.111 121.743 299.993 121.374 300.04 120.967C300.084 120.585 300.271 120.212 300.567 119.916C300.863 119.62 301.236 119.433 301.618 119.389C302.025 119.342 302.394 119.461 302.656 119.723C302.918 119.985 303.037 120.354 302.99 120.761C302.946 121.143 302.759 121.516 302.463 121.812C302.167 122.108 301.793 122.295 301.412 122.339C301.353 122.346 301.296 122.349 301.239 122.349ZM301.788 119.965C301.754 119.965 301.72 119.967 301.685 119.971C301.434 120 301.184 120.128 300.981 120.331C300.779 120.534 300.651 120.784 300.622 121.034C300.596 121.26 300.655 121.457 300.788 121.591C300.921 121.724 301.119 121.783 301.344 121.757C301.595 121.728 301.845 121.6 302.048 121.397C302.251 121.194 302.379 120.945 302.408 120.694C302.434 120.468 302.375 120.271 302.241 120.137C302.129 120.025 301.97 119.965 301.788 119.965Z" fill="white" fill-opacity="0.6"/>
<path d="M301.042 126.237C300.704 126.237 300.401 126.117 300.177 125.893C299.914 125.63 299.796 125.261 299.843 124.854C299.887 124.473 300.074 124.1 300.37 123.804C300.666 123.508 301.039 123.32 301.421 123.276C301.828 123.229 302.196 123.348 302.459 123.61C302.721 123.873 302.84 124.241 302.793 124.648C302.749 125.03 302.562 125.403 302.266 125.699C301.97 125.995 301.596 126.182 301.215 126.227C301.156 126.233 301.099 126.237 301.042 126.237ZM301.59 123.853C301.557 123.853 301.523 123.855 301.488 123.859C301.237 123.888 300.987 124.015 300.784 124.218C300.582 124.421 300.454 124.671 300.425 124.922C300.399 125.147 300.458 125.345 300.591 125.478C300.724 125.611 300.922 125.67 301.147 125.644C301.398 125.615 301.648 125.488 301.851 125.285C302.054 125.082 302.182 124.832 302.21 124.581C302.237 124.356 302.178 124.158 302.044 124.025C301.932 123.912 301.773 123.853 301.59 123.853Z" fill="white" fill-opacity="0.6"/>
</g>
<g clip-path="url(#clip14)">
<path d="M133.959 50.9506C133.498 50.9506 133.038 50.7795 132.687 50.4371C132.52 50.2751 132.389 50.0864 132.295 49.8764C132.052 49.3329 131.618 48.8997 131.075 48.6567C130.865 48.5627 130.676 48.4309 130.514 48.2647C129.828 47.5607 129.83 46.4172 130.519 45.7156C130.799 45.4301 131.156 45.2483 131.551 45.1898C131.775 45.1564 131.975 45.0563 132.128 44.9003L132.14 44.8883C132.567 44.4612 133.176 44.2742 133.855 44.3619C134.506 44.4459 135.147 44.7753 135.661 45.2893C136.175 45.8034 136.505 46.4449 136.589 47.0956C136.676 47.7746 136.489 48.3837 136.062 48.8108L136.052 48.8215C135.895 48.9754 135.795 49.1752 135.762 49.3996C135.703 49.7945 135.522 50.1515 135.236 50.432C134.884 50.7777 134.421 50.9506 133.959 50.9506ZM133.538 44.9254C133.157 44.9254 132.809 45.0482 132.554 45.3028L132.546 45.3108C132.303 45.5588 131.988 45.7175 131.637 45.7697C131.369 45.8094 131.127 45.9327 130.937 46.1264C130.47 46.6023 130.468 47.3779 130.934 47.8555C131.044 47.9684 131.172 48.0579 131.314 48.1215C131.99 48.4235 132.528 48.9618 132.83 49.6371C132.893 49.7793 132.983 49.9073 133.096 50.0174C133.573 50.4831 134.349 50.4816 134.825 50.0139C135.019 49.8235 135.142 49.5815 135.182 49.3139C135.234 48.9623 135.392 48.6475 135.64 48.4036L135.648 48.3963C135.943 48.1007 136.071 47.6654 136.007 47.1707C135.94 46.6478 135.67 46.1269 135.247 45.7039C134.738 45.1948 134.102 44.9254 133.538 44.9254Z" fill="white" fill-opacity="0.6"/>
<path d="M135.91 44.0198C135.572 44.0198 135.269 43.9005 135.044 43.6757C134.782 43.4133 134.663 43.0447 134.71 42.6377C134.754 42.256 134.942 41.8828 135.238 41.5868C135.534 41.2908 135.907 41.1035 136.288 41.0594C136.695 41.0125 137.064 41.1311 137.326 41.3934C137.589 41.6558 137.707 42.0245 137.661 42.4315C137.616 42.8132 137.429 43.1864 137.133 43.4824C136.837 43.7784 136.464 43.9657 136.082 44.0097C136.024 44.0165 135.966 44.0198 135.91 44.0198ZM136.458 41.6358C136.425 41.6358 136.391 41.6378 136.356 41.6418C136.105 41.6707 135.855 41.7984 135.652 42.0013C135.449 42.2042 135.322 42.454 135.293 42.7049C135.266 42.9304 135.326 43.1279 135.459 43.2612C135.592 43.3944 135.79 43.4534 136.015 43.4274C136.266 43.3984 136.516 43.2707 136.719 43.0678C136.921 42.8649 137.049 42.6151 137.078 42.3643C137.104 42.1387 137.045 41.9412 136.912 41.808C136.799 41.6954 136.641 41.6358 136.458 41.6358Z" fill="white" fill-opacity="0.6"/>
<path d="M131.975 44.169C131.637 44.169 131.334 44.0497 131.109 43.8249C130.847 43.5625 130.728 43.1939 130.775 42.7868C130.819 42.4052 131.006 42.032 131.302 41.736C131.598 41.44 131.971 41.2527 132.353 41.2086C132.76 41.1616 133.129 41.2802 133.391 41.5426C133.654 41.805 133.772 42.1737 133.725 42.5807C133.681 42.9623 133.494 43.3356 133.198 43.6315C132.902 43.9276 132.529 44.1148 132.147 44.1589C132.089 44.1657 132.031 44.169 131.975 44.169ZM132.523 41.7849C132.489 41.7849 132.455 41.7869 132.42 41.791C132.17 41.8199 131.92 41.9476 131.717 42.1505C131.514 42.3534 131.386 42.6033 131.357 42.8541C131.331 43.0796 131.39 43.2771 131.523 43.4104C131.657 43.5436 131.854 43.6026 132.08 43.5765C132.331 43.5476 132.58 43.4199 132.783 43.217C132.986 43.0141 133.114 42.7643 133.143 42.5134C133.169 42.2879 133.11 42.0904 132.977 41.9572C132.864 41.8446 132.705 41.7849 132.523 41.7849Z" fill="white" fill-opacity="0.6"/>
<path d="M138.239 46.3493C137.901 46.3493 137.598 46.23 137.374 46.0052C137.111 45.7428 136.993 45.3741 137.04 44.9671C137.084 44.5855 137.271 44.2123 137.567 43.9162C137.863 43.6202 138.236 43.433 138.618 43.3889C139.025 43.3418 139.394 43.4605 139.656 43.7229C139.918 43.9853 140.037 44.3539 139.99 44.761C139.946 45.1426 139.759 45.5158 139.463 45.8118C139.167 46.1078 138.793 46.2951 138.412 46.3392C138.353 46.3459 138.296 46.3493 138.239 46.3493ZM138.788 43.9652C138.754 43.9652 138.72 43.9672 138.685 43.9712C138.434 44.0002 138.184 44.1279 137.982 44.3308C137.779 44.5337 137.651 44.7835 137.622 45.0343C137.596 45.2599 137.655 45.4574 137.788 45.5906C137.921 45.7238 138.119 45.7829 138.344 45.7568C138.595 45.7278 138.845 45.6002 139.048 45.3973C139.251 45.1944 139.379 44.9445 139.408 44.6937C139.434 44.4682 139.375 44.2706 139.241 44.1374C139.129 44.0248 138.97 43.9652 138.788 43.9652Z" fill="white" fill-opacity="0.6"/>
<path d="M138.042 50.2366C137.704 50.2366 137.401 50.1173 137.177 49.8925C136.914 49.6301 136.796 49.2615 136.843 48.8545C136.887 48.4728 137.074 48.0996 137.37 47.8036C137.666 47.5076 138.039 47.3203 138.421 47.2762C138.828 47.2292 139.196 47.3479 139.459 47.6103C139.721 47.8727 139.84 48.2413 139.793 48.6483C139.749 49.03 139.562 49.4032 139.266 49.6992C138.97 49.9952 138.596 50.1825 138.215 50.2266C138.156 50.2333 138.099 50.2366 138.042 50.2366ZM138.59 47.8526C138.557 47.8526 138.523 47.8546 138.488 47.8586C138.237 47.8876 137.987 48.0153 137.784 48.2181C137.582 48.421 137.454 48.6709 137.425 48.9217C137.399 49.1472 137.458 49.3448 137.591 49.478C137.724 49.6112 137.922 49.6702 138.147 49.6442C138.398 49.6152 138.648 49.4875 138.851 49.2847C139.054 49.0818 139.182 48.8319 139.21 48.5811C139.237 48.3556 139.178 48.158 139.044 48.0248C138.932 47.9122 138.773 47.8526 138.59 47.8526Z" fill="white" fill-opacity="0.6"/>
</g>
</g>
<defs>
<clipPath id="clip0">
<rect width="475" height="217" fill="white"/>
</clipPath>
<clipPath id="clip1">
<rect width="10" height="10" fill="white" transform="translate(69.6659 82) rotate(28.8128)"/>
</clipPath>
<clipPath id="clip2">
<rect width="10" height="10" fill="white" transform="translate(390.1 179.593) rotate(-8.58737)"/>
</clipPath>
<clipPath id="clip3">
<rect width="10" height="10" fill="white" transform="translate(316.819 13) rotate(28.8128)"/>
</clipPath>
<clipPath id="clip4">
<rect width="15" height="15" fill="white" transform="translate(202.873 119.92) rotate(-11.8087)"/>
</clipPath>
<clipPath id="clip5">
<rect width="15" height="15" fill="white" transform="translate(356 101.973) rotate(-27.7029)"/>
</clipPath>
<clipPath id="clip6">
<rect width="10" height="10" fill="white" transform="translate(187.686 19.2736) rotate(29.6124)"/>
</clipPath>
<clipPath id="clip7">
<rect width="10" height="10" fill="white" transform="translate(11.9413 18) rotate(29.6124)"/>
</clipPath>
<clipPath id="clip8">
<rect width="15" height="15" fill="white" transform="translate(271 165.969) rotate(-36.7228)"/>
</clipPath>
<clipPath id="clip9">
<rect width="15" height="15" fill="white" transform="translate(378 18.6555) rotate(-2.50456)"/>
</clipPath>
<clipPath id="clip10">
<rect width="10" height="10" fill="white" transform="translate(32.0431 52.3986) rotate(14.0614)"/>
</clipPath>
<clipPath id="clip11">
<rect width="10" height="10" fill="white" transform="translate(150.43 87) rotate(14.0614)"/>
</clipPath>
<clipPath id="clip12">
<rect width="10" height="10" fill="white" transform="translate(104 81)"/>
</clipPath>
<clipPath id="clip13">
<rect width="10" height="10" fill="white" transform="translate(293 117)"/>
</clipPath>
<clipPath id="clip14">
<rect width="10" height="10" fill="white" transform="translate(130 41)"/>
</clipPath>
</defs>
</svg>
